<svg width="18" height="18" viewBox="0 0 18 18" fill="none" xmlns="http://www.w3.org/2000/svg">
<g id="icon/24x24/more">
<path id="Union" fill-rule="evenodd" clip-rule="evenodd" d="M9 3C8.58579 3 8.25 3.33579 8.25 3.75C8.25 4.16421 8.58579 4.5 9 4.5C9.41421 4.5 9.75 4.16421 9.75 3.75C9.75 3.33579 9.41421 3 9 3ZM6.75 3.75C6.75 2.50736 7.75736 1.5 9 1.5C10.2426 1.5 11.25 2.50736 11.25 3.75C11.25 4.99264 10.2426 6 9 6C7.75736 6 6.75 4.99264 6.75 3.75ZM9 8.25C8.58579 8.25 8.25 8.58579 8.25 9C8.25 9.41421 8.58579 9.75 9 9.75C9.41421 9.75 9.75 9.41421 9.75 9C9.75 8.58579 9.41421 8.25 9 8.25ZM6.75 9C6.75 7.75736 7.75736 6.75 9 6.75C10.2426 6.75 11.25 7.75736 11.25 9C11.25 10.2426 10.2426 11.25 9 11.25C7.75736 11.25 6.75 10.2426 6.75 9ZM8.25 14.25C8.25 13.8358 8.58579 13.5 9 13.5C9.41421 13.5 9.75 13.8358 9.75 14.25C9.75 14.6642 9.41421 15 9 15C8.58579 15 8.25 14.6642 8.25 14.25ZM9 12C7.75736 12 6.75 13.0074 6.75 14.25C6.75 15.4926 7.75736 16.5 9 16.5C10.2426 16.5 11.25 15.4926 11.25 14.25C11.25 13.0074 10.2426 12 9 12Z" fill="black"/>
</g>
</svg>
