<svg width="25" height="25" viewBox="0 0 25 25" fill="none" xmlns="http://www.w3.org/2000/svg">
<g id="icon/24x24/chat">
<g id="Vector">
<path fill-rule="evenodd" clip-rule="evenodd" d="M12.5 4.03846C7.82682 4.03846 4.03846 7.82682 4.03846 12.5C4.03846 13.9 4.37786 15.2185 4.9782 16.3798C5.03465 16.489 5.0641 16.6101 5.0641 16.733V19.9359H8.26697C8.38989 19.9359 8.51102 19.9654 8.62022 20.0218C9.78153 20.6221 11.1 20.9615 12.5 20.9615C17.1732 20.9615 20.9615 17.1732 20.9615 12.5C20.9615 7.82682 17.1732 4.03846 12.5 4.03846ZM2.5 12.5C2.5 6.97715 6.97715 2.5 12.5 2.5C18.0228 2.5 22.5 6.97715 22.5 12.5C22.5 18.0228 18.0228 22.5 12.5 22.5C10.9162 22.5 9.41649 22.1313 8.08388 21.4744H4.29487C3.87004 21.4744 3.52564 21.13 3.52564 20.7051V16.9161C2.86874 15.5835 2.5 14.0838 2.5 12.5Z" fill="#181727"/>
<path d="M10.4487 12.5C10.4487 13.0664 9.98952 13.5256 9.42308 13.5256C8.85663 13.5256 8.39744 13.0664 8.39744 12.5C8.39744 11.9336 8.85663 11.4744 9.42308 11.4744C9.98952 11.4744 10.4487 11.9336 10.4487 12.5Z" fill="#181727"/>
<path d="M13.5256 12.5C13.5256 13.0664 13.0664 13.5256 12.5 13.5256C11.9336 13.5256 11.4744 13.0664 11.4744 12.5C11.4744 11.9336 11.9336 11.4744 12.5 11.4744C13.0664 11.4744 13.5256 11.9336 13.5256 12.5Z" fill="#181727"/>
<path d="M16.6026 12.5C16.6026 13.0664 16.1434 13.5256 15.5769 13.5256C15.0105 13.5256 14.5513 13.0664 14.5513 12.5C14.5513 11.9336 15.0105 11.4744 15.5769 11.4744C16.1434 11.4744 16.6026 11.9336 16.6026 12.5Z" fill="#181727"/>
</g>
</g>
</svg>
