<svg width="18" height="18" viewBox="0 0 18 18" fill="none" xmlns="http://www.w3.org/2000/svg">
<g id="icon/24x24/save">
<path id="Vector 24 (Stroke)" fill-rule="evenodd" clip-rule="evenodd" d="M5.14249 1.72835C6.21915 1.62672 7.79861 1.5 9 1.5C10.2014 1.5 11.7808 1.62672 12.8575 1.72835C13.8732 1.82423 14.6617 2.63261 14.7373 3.63883C14.8443 5.06188 15 7.43088 15 9.17751C15 10.5165 14.9086 12.2186 14.8181 13.5776C14.7727 14.2589 14.7274 14.8573 14.6934 15.2854C14.6763 15.4996 14.6622 15.6712 14.6522 15.7895L14.6407 15.9255L14.6366 15.9724L14.6365 15.9732C14.6365 15.9733 14.6365 15.9733 14.0581 15.9231L14.6365 15.9732C14.6195 16.1665 14.5059 16.3384 14.3341 16.4306C14.1623 16.5229 13.9554 16.5231 13.7834 16.4314L9.09155 13.9285C9.03438 13.898 8.96562 13.898 8.90845 13.9285L4.2166 16.4314C4.04457 16.5231 3.83765 16.5229 3.66588 16.4306C3.49411 16.3384 3.38049 16.1666 3.3635 15.9733L3.94194 15.9231C3.3635 15.9733 3.3635 15.9734 3.3635 15.9733L3.35935 15.9255L3.34778 15.7895C3.33784 15.6712 3.32365 15.4996 3.30664 15.2854C3.27262 14.8573 3.22727 14.2589 3.18191 13.5776C3.09143 12.2186 3 10.5165 3 9.17751C3 7.43088 3.15572 5.06188 3.26265 3.63883C3.33826 2.63261 4.12677 1.82423 5.14249 1.72835ZM4.44885 14.9979L8.35912 12.9119C8.75936 12.6984 9.24064 12.6984 9.64088 12.9119L13.5512 14.9979C13.5825 14.5949 13.6209 14.078 13.6593 13.5014C13.7495 12.1472 13.8387 10.4765 13.8387 9.17751C13.8387 7.47824 13.6862 5.14745 13.5793 3.72474C13.5454 3.2745 13.1953 2.91928 12.7477 2.87702C11.6738 2.77566 10.1418 2.65385 9 2.65385C7.85816 2.65385 6.32615 2.77566 5.25232 2.87702C4.80468 2.91928 4.45455 3.2745 4.42072 3.72474C4.31382 5.14745 4.16129 7.47824 4.16129 9.17751C4.16129 10.4765 4.2505 12.1472 4.34067 13.5014C4.37906 14.078 4.41745 14.5949 4.44885 14.9979Z" fill="white"/>
</g>
</svg>
