<svg width="24" height="24" viewBox="0 0 24 24" fill="none" xmlns="http://www.w3.org/2000/svg">
<g id="icon/24x24/collaboration">
<g id="Vector">
<path d="M20.4902 2H13.9922C13.6686 2 13.4062 2.26234 13.4062 2.58594V5.27961C13.4062 5.5107 13.5421 5.72023 13.7531 5.81453C13.9641 5.90887 14.2108 5.87035 14.383 5.71613C14.5385 5.57695 14.7393 5.50457 14.9491 5.51301C15.3631 5.52937 15.6997 5.86656 15.7154 6.28062C15.7237 6.50074 15.6445 6.70895 15.4924 6.86691C15.3402 7.02504 15.1355 7.11211 14.916 7.11211C14.7191 7.11215 14.5298 7.03977 14.383 6.90832C14.2108 6.75426 13.9641 6.71559 13.753 6.80996C13.5421 6.90426 13.4062 7.11379 13.4062 7.34488V10.0078C13.4062 10.3314 13.6686 10.5938 13.9921 10.5938H15.7447C15.7212 10.7301 15.7119 10.8698 15.7175 11.0111C15.7579 12.0328 16.59 12.8634 17.6118 12.902C17.6376 12.903 17.6633 12.9035 17.689 12.9035C18.2016 12.9035 18.6843 12.7093 19.0552 12.3522C19.4449 11.977 19.6595 11.4725 19.6595 10.9317C19.6595 10.8177 19.6496 10.7046 19.6304 10.5938H21.4141C21.7377 10.5938 22 10.3314 22 10.0079V3.5098C22 2.6773 21.3227 2 20.4902 2ZM20.8281 9.42188H18.7204C18.4893 9.42188 18.2798 9.55773 18.1855 9.76875C18.0912 9.97973 18.1297 10.2265 18.2839 10.3987C18.4153 10.5454 18.4877 10.7348 18.4877 10.9317C18.4877 11.1511 18.4006 11.3558 18.2425 11.508C18.0845 11.6602 17.8771 11.739 17.6562 11.731C17.2421 11.7154 16.9049 11.3787 16.8886 10.9648C16.8803 10.7553 16.9524 10.5542 17.0916 10.3987C17.2458 10.2265 17.2843 9.97973 17.19 9.76875C17.0957 9.55777 16.8861 9.42188 16.655 9.42188H14.5781V8.25496C14.6889 8.27418 14.8019 8.28402 14.9159 8.28402H14.9161C15.4569 8.28402 15.9614 8.06945 16.3366 7.67977C16.7116 7.29027 16.9069 6.77766 16.8864 6.23641C16.8478 5.21457 16.0171 4.38246 14.9954 4.34207C14.8539 4.33637 14.7144 4.34582 14.5781 4.36934V3.17188H20.4902C20.6766 3.17188 20.8281 3.32348 20.8281 3.5098V9.42188Z" fill="#212129"/>
<path d="M17.4297 13.4062H14.736C14.5049 13.4062 14.2954 13.5421 14.2011 13.7531C14.1068 13.9641 14.1453 14.2109 14.2995 14.383C14.4309 14.5298 14.5033 14.7191 14.5033 14.9161C14.5033 15.1355 14.4162 15.3402 14.2581 15.4924C14.1001 15.6445 13.8929 15.7232 13.6718 15.7154C13.2577 15.6998 12.9205 15.3631 12.9042 14.9491C12.8959 14.7396 12.968 14.5386 13.1073 14.383C13.2614 14.2109 13.3 13.9641 13.2057 13.7531C13.1114 13.5421 12.9018 13.4062 12.6707 13.4062H10.5938V12.2396C10.7301 12.2631 10.8698 12.2725 11.011 12.2668C12.0328 12.2264 12.8634 11.3943 12.902 10.3725C12.9225 9.83125 12.7272 9.31863 12.3522 8.92914C11.977 8.53945 11.4725 8.32488 10.9317 8.32488C10.8177 8.32488 10.7046 8.33473 10.5938 8.35398V6.57031C10.5938 6.24672 10.3314 5.98438 10.0079 5.98438H3.5098C2.6773 5.98438 2 6.66168 2 7.49418V20.4902C2 21.3227 2.6773 22 3.5098 22H16.5058C17.3383 22 18.0156 21.3227 18.0156 20.4902V13.9922C18.0156 13.6686 17.7533 13.4062 17.4297 13.4062ZM3.17188 7.49418C3.17188 7.30781 3.32348 7.15625 3.5098 7.15625H9.42188V9.26398C9.42188 9.49512 9.55773 9.70461 9.76875 9.79891C9.97969 9.89328 10.2265 9.85469 10.3987 9.70051C10.5454 9.5691 10.7348 9.49672 10.9317 9.49672C11.1511 9.49672 11.3558 9.58379 11.508 9.74191C11.6602 9.89988 11.7393 10.1081 11.731 10.3282C11.7154 10.7423 11.3787 11.0795 10.9647 11.0958C10.7553 11.1041 10.5542 11.032 10.3987 10.8927C10.2265 10.7386 9.9798 10.7 9.76875 10.7943C9.55777 10.8886 9.42191 11.0982 9.42191 11.3293V13.4062H8.255C8.27422 13.2954 8.28406 13.1824 8.28406 13.0683C8.28406 12.5275 8.06949 12.023 7.6798 11.6479C7.29031 11.2728 6.77738 11.0768 6.23645 11.098C5.21461 11.1366 4.3825 11.9673 4.34211 12.989C4.33652 13.1302 4.34586 13.27 4.36934 13.4063H3.17188V7.49418ZM3.17188 20.4902V14.5781H5.27961C5.51074 14.5781 5.72023 14.4423 5.81453 14.2312C5.90883 14.0203 5.87031 13.7735 5.71609 13.6013C5.57688 13.4458 5.50473 13.2448 5.51301 13.0353C5.52937 12.6213 5.86656 12.2846 6.28062 12.269C6.50023 12.2615 6.70891 12.3398 6.86691 12.492C7.02504 12.6442 7.11211 12.8489 7.11211 13.0683C7.11211 13.2653 7.03973 13.4546 6.90832 13.6014C6.75422 13.7736 6.71566 14.0203 6.80996 14.2313C6.90426 14.4423 7.11387 14.5781 7.34496 14.5781H9.42188V15.7448C9.28555 15.7212 9.14582 15.7119 9.00461 15.7175C7.98285 15.7579 7.15219 16.59 7.11359 17.6119C7.09313 18.1531 7.2884 18.6657 7.66344 19.0552C8.03863 19.4449 8.54313 19.6595 9.08391 19.6595C9.19797 19.6595 9.31098 19.6496 9.42184 19.6304V20.8281H3.5098C3.32348 20.8281 3.17188 20.6765 3.17188 20.4902ZM16.8438 20.4902C16.8438 20.6766 16.6921 20.8281 16.5058 20.8281H10.5938V18.7204C10.5938 18.4893 10.4579 18.2798 10.2469 18.1855C10.0359 18.0911 9.78914 18.1297 9.61695 18.2839C9.4702 18.4153 9.28086 18.4877 9.08391 18.4877C8.86453 18.4877 8.65984 18.4006 8.50758 18.2425C8.35547 18.0845 8.27629 17.8763 8.28461 17.6562C8.30023 17.2421 8.63688 16.9049 9.0509 16.8886C9.25984 16.8803 9.46137 16.9524 9.61695 17.0916C9.78914 17.2458 10.0358 17.2844 10.2469 17.19C10.4579 17.0957 10.5937 16.8862 10.5937 16.6551V14.5781H11.7604C11.7368 14.7144 11.7275 14.8541 11.7331 14.9954C11.7735 16.0171 12.6056 16.8478 13.6275 16.8864C14.1685 16.9074 14.6813 16.7116 15.0708 16.3366C15.4605 15.9614 15.6751 15.4569 15.6751 14.9161C15.6751 14.802 15.6652 14.689 15.646 14.5782H16.8438V20.4902Z" fill="#212129"/>
</g>
</g>
</svg>
