<svg width="24" height="24" viewBox="0 0 24 24" fill="none" xmlns="http://www.w3.org/2000/svg">
<g id="icon/24x24/moveback">
<path id="Vector" d="M1.08168 11.7861L1.08238 11.7857L11.0642 6.02223C11.0643 6.02219 11.0644 6.02214 11.0645 6.0221C11.1159 5.99259 11.179 5.99263 11.2303 6.02223C11.28 6.05086 11.312 6.10538 11.312 6.16453V10.8958V11.2294V12.6279V12.9613V17.6918C11.312 17.7514 11.2803 17.8053 11.2303 17.8341C11.2031 17.8498 11.1742 17.8569 11.1473 17.8569C11.1202 17.8569 11.0917 17.8498 11.0654 17.8346L11.0653 17.8345L1.08234 12.0711L1.08168 12.0707C1.032 12.042 1 11.9875 1 11.9284C1 11.8692 1.032 11.8147 1.08168 11.7861ZM12.8119 12.0953L12.5232 11.9286L12.812 11.7618L22.7519 6.02245C22.752 6.02236 22.7522 6.02227 22.7523 6.02218C22.8044 5.99243 22.8672 5.99277 22.9183 6.02223C22.968 6.05086 23 6.10539 23 6.16453V17.6918C23 17.7514 22.9683 17.8053 22.9183 17.8341C22.8907 17.8501 22.8621 17.8569 22.836 17.8569C22.8093 17.8569 22.7801 17.8498 22.753 17.8341L12.8119 12.0953Z" stroke="#4030FF" stroke-width="2"/>
</g>
</svg>
