<svg width="25" height="25" viewBox="0 0 25 25" fill="none" xmlns="http://www.w3.org/2000/svg">
<g id="icon/24x24/home">
<path id="Vector 15 (Stroke)" fill-rule="evenodd" clip-rule="evenodd" d="M13.2166 4.29535C12.7835 3.9971 12.2165 3.9971 11.7834 4.29535L4.64336 9.21204C4.31027 9.4414 4.10747 9.81102 4.09247 10.2079C4.04064 11.5799 3.9857 13.9824 4.13658 15.6877C4.2504 16.9741 4.55336 18.6746 4.79944 19.9256C4.91371 20.5065 5.41937 20.9283 6.02037 20.9283H9.34433C9.48594 20.9283 9.60074 20.8111 9.60074 20.6664V16.4753C9.60074 15.4626 10.4043 14.6417 11.3956 14.6417H13.9091C14.9004 14.6417 15.704 15.4626 15.704 16.4753V20.6664C15.704 20.8111 15.8188 20.9283 15.9604 20.9283H18.9796C19.5806 20.9283 20.0863 20.5065 20.2006 19.9256C20.4466 18.6746 20.7496 16.9741 20.8634 15.6877C21.0143 13.9824 20.9594 11.5799 20.9075 10.2079C20.8925 9.81102 20.6897 9.4414 20.3566 9.21204L13.2166 4.29535ZM10.9235 2.99211C11.8764 2.33596 13.1236 2.33596 14.0765 2.99211L21.2165 7.9088C21.9457 8.41092 22.4104 9.23645 22.4448 10.1473C22.4966 11.5177 22.5564 14.0119 22.3956 15.8291C22.2738 17.2066 21.9561 18.9785 21.7089 20.2352C21.4461 21.571 20.2924 22.5 18.9796 22.5H15.9604C14.9691 22.5 14.1655 21.6791 14.1655 20.6664V16.4753C14.1655 16.3306 14.0507 16.2133 13.9091 16.2133H11.3956C11.254 16.2133 11.1392 16.3306 11.1392 16.4753V20.6664C11.1392 21.6791 10.3356 22.5 9.34433 22.5H6.02037C4.70761 22.5 3.55389 21.571 3.29113 20.2352C3.04392 18.9785 2.72624 17.2066 2.60437 15.8291C2.44358 14.0119 2.50338 11.5177 2.55515 10.1473C2.58957 9.23645 3.05427 8.41092 3.78346 7.9088L10.9235 2.99211Z" fill="#181727"/>
</g>
</svg>
