<svg width="18" height="18" viewBox="0 0 18 18" fill="none" xmlns="http://www.w3.org/2000/svg">
<g id="icon/24x24/google">
<path id="Vector" d="M15.4158 7.95978L15.3477 7.67079L9.0666 7.67079V10.3292L12.8195 10.3292C12.4298 12.1794 10.6218 13.1534 9.14494 13.1534C8.07037 13.1534 6.93763 12.7014 6.1879 11.9748C5.79234 11.5854 5.47748 11.1217 5.26134 10.6105C5.0452 10.0992 4.93203 9.55026 4.9283 8.99518C4.9283 7.8754 5.43154 6.75532 6.16379 6.01855C6.89605 5.28177 8.00196 4.86954 9.10155 4.86954C10.3608 4.86954 11.2634 5.53821 11.6009 5.84317L13.49 3.96402C12.9358 3.47705 11.4134 2.25 9.04068 2.25C7.21004 2.25 5.45474 2.95122 4.17164 4.2301C2.90541 5.4894 2.25 7.31039 2.25 9C2.25 10.6896 2.87016 12.4196 4.09721 13.6888C5.40834 15.0425 7.26519 15.75 9.17719 15.75C10.9168 15.75 12.5657 15.0684 13.741 13.8317C14.8963 12.6143 15.4939 10.9298 15.4939 9.16393C15.4939 8.42052 15.4191 7.97906 15.4158 7.95978Z" stroke="#212129" stroke-width="1.2"/>
</g>
</svg>
