<svg width="18" height="18" viewBox="0 0 18 18" fill="none" xmlns="http://www.w3.org/2000/svg">
<g id="icon/24x24/edit">
<path id="Vector 72 (Stroke)" fill-rule="evenodd" clip-rule="evenodd" d="M11.5207 2.18369C12.4323 1.2721 13.9103 1.27211 14.8219 2.18369L15.8163 3.17814C16.7279 4.08973 16.7279 5.5677 15.8163 6.47928L6.47928 15.8163C6.04152 16.2541 5.4478 16.5 4.82871 16.5H2.13662C1.78502 16.5 1.5 16.215 1.5 15.8634L1.5 13.1713C1.5 12.5522 1.74593 11.9585 2.18369 11.5207L11.5207 2.18369ZM13.9215 3.084C13.5072 2.66964 12.8354 2.66964 12.421 3.084L10.6763 4.82871L13.1713 7.32369L14.916 5.57897C15.3304 5.16462 15.3304 4.49281 14.916 4.07846L13.9215 3.084ZM12.271 8.224L9.776 5.72902L3.084 12.421C2.88502 12.62 2.77323 12.8899 2.77323 13.1713L2.77323 15.2268H4.82871C5.11011 15.2268 5.37999 15.115 5.57897 14.916L12.271 8.224Z" fill="#181727"/>
</g>
</svg>
