<svg width="18" height="18" viewBox="0 0 18 18" fill="none" xmlns="http://www.w3.org/2000/svg">
<g id="icon/24x24/instagram">
<path id="Shape" fill-rule="evenodd" clip-rule="evenodd" d="M9.0007 1.5C6.96381 1.5 6.70818 1.50891 5.90817 1.54531C5.10973 1.58188 4.56472 1.70828 4.08784 1.89375C3.59455 2.08532 3.17611 2.34157 2.75923 2.75861C2.34204 3.17549 2.08579 3.59393 1.8936 4.08706C1.70766 4.56409 1.58109 5.10926 1.54516 5.90739C1.50938 6.7074 1.5 6.96318 1.5 9.00008C1.5 11.037 1.50906 11.2918 1.54531 12.0918C1.58203 12.8903 1.70844 13.4353 1.89375 13.9122C2.08547 14.4054 2.34173 14.8239 2.75876 15.2408C3.17549 15.658 3.59393 15.9148 4.0869 16.1064C4.56409 16.2919 5.10926 16.4183 5.90755 16.4548C6.70755 16.4912 6.96303 16.5002 8.99977 16.5002C11.0368 16.5002 11.2917 16.4912 12.0917 16.4548C12.8901 16.4183 13.4358 16.2919 13.9129 16.1064C14.4061 15.9148 14.8239 15.658 15.2406 15.2408C15.6578 14.8239 15.9141 14.4054 16.1062 13.9123C16.2906 13.4353 16.4172 12.8901 16.4547 12.092C16.4906 11.292 16.5 11.037 16.5 9.00008C16.5 6.96318 16.4906 6.70755 16.4547 5.90755C16.4172 5.1091 16.2906 4.56409 16.1062 4.08721C15.9141 3.59393 15.6578 3.17549 15.2406 2.75861C14.8234 2.34141 14.4062 2.08516 13.9125 1.89375C13.4343 1.70828 12.889 1.58188 12.0906 1.54531C11.2906 1.50891 11.0359 1.5 8.99836 1.5H9.0007ZM8.32803 2.85156C8.52772 2.85125 8.75054 2.85156 9.00085 2.85156C11.0034 2.85156 11.2407 2.85875 12.0315 2.89469C12.7628 2.92813 13.1596 3.05032 13.424 3.15297C13.774 3.28891 14.0236 3.45141 14.2859 3.71392C14.5484 3.97642 14.7109 4.22642 14.8472 4.57643C14.9498 4.84049 15.0722 5.23737 15.1054 5.96863C15.1414 6.75926 15.1492 6.99676 15.1492 8.99835C15.1492 10.9999 15.1414 11.2374 15.1054 12.0281C15.072 12.7593 14.9498 13.1562 14.8472 13.4203C14.7112 13.7703 14.5484 14.0195 14.2859 14.2818C14.0234 14.5443 13.7742 14.7068 13.424 14.8428C13.16 14.9459 12.7628 15.0678 12.0315 15.1012C11.2409 15.1372 11.0034 15.145 9.00085 15.145C6.99818 15.145 6.76083 15.1372 5.9702 15.1012C5.23894 15.0675 4.84206 14.9453 4.57753 14.8426C4.22752 14.7067 3.97752 14.5442 3.71502 14.2817C3.45251 14.0192 3.29001 13.7698 3.15376 13.4196C3.0511 13.1556 2.92876 12.7587 2.89548 12.0274C2.85954 11.2368 2.85235 10.9993 2.85235 8.99647C2.85235 6.99364 2.85954 6.75738 2.89548 5.96675C2.92892 5.23549 3.0511 4.83862 3.15376 4.57424C3.2897 4.22423 3.45251 3.97423 3.71502 3.71173C3.97752 3.44923 4.22752 3.28672 4.57753 3.15047C4.8419 3.04735 5.23894 2.92547 5.9702 2.89188C6.66208 2.86063 6.93021 2.85125 8.32803 2.84969V2.85156ZM13.0043 4.0969C12.5074 4.0969 12.1043 4.49956 12.1043 4.9966C12.1043 5.49348 12.5074 5.89661 13.0043 5.89661C13.5012 5.89661 13.9043 5.49348 13.9043 4.9966C13.9043 4.49972 13.5012 4.09659 13.0043 4.09659V4.0969ZM9.00087 5.14848C6.87382 5.14848 5.14927 6.87303 5.14927 9.00008C5.14927 11.1271 6.87382 12.8509 9.00087 12.8509C11.1279 12.8509 12.8518 11.1271 12.8518 9.00008C12.8518 6.87303 11.1278 5.14848 9.00071 5.14848H9.00087ZM9.00085 6.50006C10.3815 6.50006 11.5009 7.61929 11.5009 9.00008C11.5009 10.3807 10.3815 11.5001 9.00085 11.5001C7.62006 11.5001 6.50083 10.3807 6.50083 9.00008C6.50083 7.61929 7.62006 6.50006 9.00085 6.50006Z" fill="#212129"/>
</g>
</svg>
