<svg width="18" height="18" viewBox="0 0 18 18" fill="none" xmlns="http://www.w3.org/2000/svg">
<g id="icon/24x24/facebook">
<path id="facebook (Traced)" fill-rule="evenodd" clip-rule="evenodd" d="M9.76509 1.51754C9.56578 1.54484 9.10172 1.67206 8.88361 1.75917C7.75354 2.21062 7.01798 3.1134 6.72422 4.40953C6.67209 4.63961 6.66042 4.81701 6.64484 5.61783L6.62657 6.55645L5.80527 6.57112C5.11157 6.5835 4.97007 6.59341 4.89446 6.63486C4.75751 6.70995 4.56676 6.93316 4.53171 7.05935C4.51159 7.13186 4.50026 7.64127 4.50018 8.47928L4.5 9.78611L4.57597 9.93858C4.61777 10.0224 4.70025 10.131 4.75929 10.1798C4.94734 10.3354 5.07464 10.3549 5.89861 10.3549H6.64124L6.64124 13.1571C6.64124 16.2483 6.63076 16.0715 6.82606 16.2753C6.87765 16.3291 6.97269 16.4017 7.03722 16.4366C7.15284 16.4991 7.17502 16.5 8.56248 16.5C9.95525 16.5 9.97171 16.4993 10.0905 16.4357C10.2304 16.3609 10.3859 16.1935 10.4434 16.0558C10.4767 15.9762 10.4837 15.4685 10.4837 13.1589V10.3586L11.4444 10.3494C12.3619 10.3407 12.4103 10.3375 12.5227 10.2772C12.6723 10.1971 12.7898 10.0796 12.8699 9.93001C12.9311 9.81568 12.9332 9.77617 12.9424 8.55103C12.9488 7.69125 12.9413 7.24141 12.9188 7.13793C12.8762 6.94231 12.7517 6.77236 12.5749 6.66841L12.4343 6.58578L11.4664 6.57112L10.4984 6.55645L10.4998 5.99914C10.5006 5.69262 10.5112 5.39224 10.5232 5.33161C10.5641 5.12599 10.5861 5.12124 11.5823 5.10346C12.3376 5.08997 12.4804 5.08035 12.581 5.03597C12.7279 4.97117 12.8751 4.8317 12.9575 4.6792C13.0198 4.56408 13.0209 4.53809 13.0209 3.28593C13.0209 2.02545 13.0202 2.00852 12.9561 1.88873C12.8745 1.73627 12.7468 1.60741 12.6153 1.54499C12.5249 1.50211 12.3637 1.49718 11.1833 1.50108C10.4517 1.50349 9.81349 1.51091 9.76509 1.51754ZM12.1487 3.2786L12.141 4.20989L11.349 4.22699C10.7229 4.24048 10.5254 4.25439 10.406 4.29325C10.0819 4.39873 9.80639 4.66545 9.70854 4.96845C9.63067 5.20958 9.59837 5.67435 9.60876 6.40413C9.61905 7.12587 9.62946 7.18307 9.7748 7.3146C9.91105 7.43791 10.0114 7.44844 11.063 7.44979L12.0677 7.45108V8.46303V9.47499H11.023C10.0237 9.47499 9.97376 9.4776 9.87125 9.5352C9.81232 9.56835 9.7313 9.64326 9.69127 9.70172L9.61843 9.80799L9.61043 12.7213L9.60239 15.6347H8.56248H7.52257L7.51454 12.7213L7.50653 9.80799L7.4337 9.70172C7.39366 9.64326 7.31265 9.56835 7.25372 9.5352C7.15223 9.47818 7.09984 9.47499 6.26326 9.47499H5.37996V8.46303V7.45108L6.22326 7.44979C7.1041 7.44844 7.21726 7.43486 7.35016 7.3146C7.50389 7.17547 7.50498 7.16673 7.52442 5.91115C7.54208 4.77157 7.54475 4.72986 7.61805 4.45921C7.74213 4.00111 7.88107 3.70787 8.1289 3.38112C8.49616 2.89682 9.07532 2.55225 9.73949 2.4229C10.0749 2.35758 10.0841 2.35714 11.1661 2.352L12.1565 2.34731L12.1487 3.2786Z" fill="#212129" stroke="#212129" stroke-width="0.2"/>
</g>
</svg>
