<svg width="32" height="32" viewBox="0 0 32 32" fill="none" xmlns="http://www.w3.org/2000/svg">
<g id="icon/24x24/youtube">
<path id="youtube-2 (Traced)" fill-rule="evenodd" clip-rule="evenodd" d="M13.6817 6.67623C9.21349 6.82157 7.21974 6.96644 6.18492 7.22113C5.3821 7.4187 4.72784 7.80743 4.14826 8.43122C3.53488 9.09131 3.25477 9.65861 3.05382 10.648C2.53709 13.1915 2.53787 19.3711 3.05528 21.9178C3.25514 22.9016 3.54425 23.4868 4.1468 24.1273C4.75034 24.7689 5.48781 25.1816 6.35781 25.3646C8.16186 25.7441 14.3578 25.9965 18.6808 25.8666C22.9106 25.7396 25.0637 25.5683 26.0232 25.2827C27.3047 24.9013 28.3219 23.9234 28.7591 22.6524C29.424 20.7199 29.5403 13.6732 28.9564 10.7074C28.747 9.64403 28.3537 8.88822 27.6806 8.25579C27.0876 7.69865 26.437 7.36048 25.6387 7.19447C24.7615 7.01205 22.869 6.84807 20.5034 6.74944C19.179 6.69425 14.6291 6.6454 13.6817 6.67623ZM18.7849 8.7808C22.9057 8.90307 25.0212 9.08788 25.6762 9.38288C26.1987 9.6182 26.5797 10.0156 26.7582 10.5115C26.8962 10.8948 27.032 11.7004 27.1258 12.6924C27.2415 13.9166 27.2584 18.1927 27.1525 19.4818C27.0294 20.982 26.8755 21.8731 26.6698 22.2763C26.4061 22.7932 25.8762 23.1907 25.2631 23.3316C23.8037 23.6669 17.5682 23.9046 13.4213 23.783C10.0701 23.6848 7.73943 23.5257 6.82043 23.3324C5.86321 23.1311 5.30024 22.5374 5.09501 21.5127C4.63593 19.2206 4.63593 13.338 5.09501 11.0459C5.20635 10.49 5.39246 10.1116 5.71121 9.79306C6.20659 9.29794 6.66588 9.16349 8.35682 9.01857C11.1566 8.77856 15.427 8.68123 18.7849 8.7808ZM13.3432 16.2831V20.5093L13.4604 20.4352C13.5248 20.3944 15.1537 19.4493 17.0801 18.3351C19.0066 17.2208 20.5766 16.2915 20.5691 16.2701C20.5616 16.2486 19.0323 15.35 17.1706 14.273C15.309 13.1961 13.6863 12.2569 13.5645 12.186L13.3432 12.0569V16.2831Z" fill="black"/>
</g>
</svg>
