<svg width="24" height="24" viewBox="0 0 24 24" fill="none" xmlns="http://www.w3.org/2000/svg">
<g id="icon/24x24/back2">
<path id="Vector" d="M8.93419 11.9844C8.9209 11.9922 8.9003 12.0074 8.87446 12.0374L8.72261 12.2132L8.87446 12.389C8.90038 12.419 8.92049 12.4336 8.93249 12.4406L8.93367 12.4413L18.6422 18.1293C18.6422 18.1294 18.6423 18.1294 18.6423 18.1294C18.6804 18.1517 18.7205 18.1616 18.7581 18.1616C18.7955 18.1616 18.8358 18.1516 18.8738 18.1294L8.93419 11.9844ZM8.93419 11.9844L18.6426 6.29642L18.6427 6.29634C18.7149 6.25407 18.8013 6.25407 18.8734 6.29634C18.9472 6.33966 19 6.4254 19 6.52506V17.9013C19 18.001 18.9472 18.0864 18.8739 18.1293L8.93419 11.9844ZM7.11767 14.0713V17.4107C7.11767 18.0261 6.62974 18.5 6.05884 18.5C5.48793 18.5 5 18.0261 5 17.4107V6.58934C5 5.97386 5.48793 5.5 6.05884 5.5C6.62974 5.5 7.11767 5.97386 7.11767 6.58934V10.355V11.3837V13.0426V14.0713Z" stroke="#4030FF" stroke-width="2"/>
</g>
</svg>
