<svg width="25" height="25" viewBox="0 0 25 25" fill="none" xmlns="http://www.w3.org/2000/svg">
<g id="icon/24x24/category">
<g id="Vector">
<path fill-rule="evenodd" clip-rule="evenodd" d="M18 4.07143C18.7172 4.07143 19.7237 4.24256 20.4095 4.38071C20.4902 4.39696 20.5551 4.46042 20.5693 4.55126C20.7065 5.42993 20.9118 6.93203 20.9118 8C20.9118 9.06797 20.7065 10.5701 20.5693 11.4487C20.5551 11.5396 20.4902 11.603 20.4095 11.6193C19.7237 11.7574 18.7172 11.9286 18 11.9286C17.2828 11.9286 16.2763 11.7574 15.5905 11.6193C15.5098 11.603 15.4449 11.5396 15.4307 11.4487C15.2935 10.5701 15.0882 9.06797 15.0882 8C15.0882 6.93203 15.2935 5.42993 15.4307 4.55126C15.4449 4.46042 15.5098 4.39696 15.5905 4.38071C16.2763 4.24256 17.2828 4.07143 18 4.07143ZM20.7263 2.84087C20.0379 2.70219 18.8926 2.5 18 2.5C17.1074 2.5 15.9621 2.70219 15.2737 2.84087C14.5313 2.99041 13.9751 3.58082 13.8611 4.31133C13.7241 5.18826 13.5 6.79813 13.5 8C13.5 9.20187 13.7241 10.8117 13.8611 11.6887C13.9751 12.4192 14.5313 13.0096 15.2737 13.1591C15.9621 13.2978 17.1074 13.5 18 13.5C18.8926 13.5 20.0379 13.2978 20.7263 13.1591C21.4687 13.0096 22.0249 12.4192 22.1389 11.6887C22.2759 10.8117 22.5 9.20187 22.5 8C22.5 6.79813 22.2759 5.18826 22.1389 4.31133C22.0249 3.58082 21.4687 2.99041 20.7263 2.84087Z" fill="#181727"/>
<path fill-rule="evenodd" clip-rule="evenodd" d="M7 20.9286C7.71723 20.9286 8.72366 20.7574 9.40946 20.6193C9.49018 20.603 9.55514 20.5396 9.56933 20.4487C9.70653 19.5701 9.91176 18.068 9.91176 17C9.91176 15.932 9.70653 14.4299 9.56933 13.5513C9.55514 13.4604 9.49018 13.397 9.40946 13.3807C8.72366 13.2426 7.71723 13.0714 7 13.0714C6.28277 13.0714 5.27633 13.2426 4.59054 13.3807C4.50982 13.397 4.44485 13.4604 4.43067 13.5513C4.29347 14.4299 4.08823 15.932 4.08823 17C4.08823 18.068 4.29347 19.5701 4.43067 20.4487C4.44485 20.5396 4.50982 20.603 4.59054 20.6193C5.27633 20.7574 6.28277 20.9286 7 20.9286ZM9.72631 22.1591C9.03788 22.2978 7.89261 22.5 7 22.5C6.10739 22.5 4.96212 22.2978 4.27369 22.1591C3.5313 22.0096 2.97513 21.4192 2.86106 20.6887C2.72412 19.8117 2.5 18.2019 2.5 17C2.5 15.7981 2.72412 14.1883 2.86106 13.3113C2.97513 12.5808 3.5313 11.9904 4.27369 11.8409C4.96212 11.7022 6.10739 11.5 7 11.5C7.89261 11.5 9.03788 11.7022 9.72631 11.8409C10.4687 11.9904 11.0249 12.5808 11.1389 13.3113C11.2759 14.1883 11.5 15.7981 11.5 17C11.5 18.2019 11.2759 19.8117 11.1389 20.6887C11.0249 21.4192 10.4687 22.0096 9.72631 22.1591Z" fill="#181727"/>
<path fill-rule="evenodd" clip-rule="evenodd" d="M18 17.1154C18.7611 17.1154 19.8376 17.2965 20.5168 17.4294C20.5926 17.4443 20.6376 17.4941 20.6523 17.5469C20.7824 18.0158 20.9118 18.5994 20.9118 19C20.9118 19.4006 20.7824 19.9842 20.6523 20.4531C20.6376 20.5059 20.5926 20.5557 20.5168 20.5706C19.8376 20.7035 18.7611 20.8846 18 20.8846C17.2389 20.8846 16.1624 20.7035 15.4832 20.5706C15.4074 20.5557 15.3624 20.5059 15.3477 20.4531C15.2176 19.9842 15.0882 19.4006 15.0882 19C15.0882 18.5994 15.2176 18.0158 15.3477 17.5469C15.3624 17.4941 15.4074 17.4443 15.4832 17.4294C16.1624 17.2965 17.2389 17.1154 18 17.1154ZM20.817 15.8432C20.1381 15.7103 18.9283 15.5 18 15.5C17.0717 15.5 15.8619 15.7103 15.183 15.8432C14.5404 15.9689 14.0034 16.4447 13.8193 17.1079C13.6866 17.5857 13.5 18.357 13.5 19C13.5 19.643 13.6866 20.4143 13.8193 20.8921C14.0034 21.5553 14.5404 22.0311 15.183 22.1568C15.8619 22.2897 17.0717 22.5 18 22.5C18.9283 22.5 20.1381 22.2897 20.817 22.1568C21.4596 22.0311 21.9966 21.5553 22.1807 20.8921C22.3134 20.4143 22.5 19.643 22.5 19C22.5 18.357 22.3134 17.5857 22.1807 17.1079C21.9966 16.4447 21.4596 15.9689 20.817 15.8432Z" fill="#181727"/>
<path fill-rule="evenodd" clip-rule="evenodd" d="M7 7.88462C7.76112 7.88462 8.83759 7.70353 9.51684 7.57057C9.59259 7.55575 9.63759 7.50592 9.65225 7.45312C9.78245 6.9842 9.91176 6.40057 9.91176 6C9.91176 5.59943 9.78245 5.0158 9.65225 4.54688C9.63759 4.49408 9.59259 4.44425 9.51684 4.42943C8.83759 4.29647 7.76112 4.11538 7 4.11538C6.23888 4.11538 5.16241 4.29647 4.48315 4.42943C4.40741 4.44425 4.36241 4.49408 4.34775 4.54688C4.21755 5.0158 4.08823 5.59943 4.08823 6C4.08823 6.40057 4.21755 6.9842 4.34775 7.45312C4.36241 7.50592 4.40741 7.55575 4.48316 7.57057C5.16241 7.70353 6.23888 7.88462 7 7.88462ZM9.81699 9.15685C9.13814 9.28973 7.92835 9.5 7 9.5C6.07165 9.5 4.86186 9.28973 4.18301 9.15685C3.54043 9.03107 3.00344 8.55534 2.81929 7.89214C2.68661 7.41427 2.5 6.64299 2.5 6C2.5 5.35701 2.68661 4.58573 2.81929 4.10786C3.00344 3.44466 3.54043 2.96893 4.183 2.84315C4.86185 2.71027 6.07165 2.5 7 2.5C7.92835 2.5 9.13814 2.71027 9.81699 2.84315C10.4596 2.96893 10.9966 3.44466 11.1807 4.10786C11.3134 4.58573 11.5 5.35701 11.5 6C11.5 6.64299 11.3134 7.41427 11.1807 7.89214C10.9966 8.55534 10.4596 9.03107 9.81699 9.15685Z" fill="#181727"/>
</g>
</g>
</svg>
