<svg width="24" height="24" viewBox="0 0 24 24" fill="none" xmlns="http://www.w3.org/2000/svg">
<g id="icon/24x24/forward2">
<path id="Vector" d="M15.1314 11.4438L15.2693 11.6006L15.1314 11.7573C15.1057 11.7865 15.0845 11.8025 15.0694 11.8114C15.0691 11.8116 15.0689 11.8118 15.0686 11.8119L5.36441 17.4146C5.36423 17.4147 5.36405 17.4148 5.36388 17.4149C5.32531 17.4369 5.28346 17.4475 5.24197 17.4475C5.201 17.4475 5.15874 17.4369 5.12051 17.4151C5.04571 17.3715 5 17.2917 5 17.2056V5.99554C5 5.90915 5.04626 5.82915 5.12089 5.78607L5.12111 5.78594C5.19604 5.74267 5.28791 5.74267 5.36283 5.78594L5.36296 5.78602L15.0703 11.3905C15.0704 11.3906 15.0705 11.3906 15.0706 11.3907C15.0845 11.3988 15.1054 11.4142 15.1314 11.4438ZM16.8822 10.7833V9.76686V6.05888C16.8822 5.47414 17.3564 5 17.9411 5C18.5259 5 19 5.47414 19 6.05888V16.7221C19 17.3069 18.5259 17.781 17.9411 17.781C17.3564 17.781 16.8822 17.3069 16.8822 16.7221V13.4342V12.4178V10.7833Z" stroke="#4030FF" stroke-width="2"/>
</g>
</svg>
