<svg width="24" height="24" viewBox="0 0 24 24" fill="none" xmlns="http://www.w3.org/2000/svg">
<g id="icon/24x24/reload" opacity="0.5">
<path id="Vector" d="M15.2077 21.4539C20.5127 19.8668 23.2473 14.0754 21.448 8.98397C21.2946 8.58204 20.8577 8.35222 20.4046 8.49531C19.9921 8.64437 19.7565 9.06969 19.9038 9.51107C21.4018 13.7631 19.1214 18.5722 14.7205 19.9133C8.88026 21.692 5.24568 17.7507 4.12697 14.8257C2.59967 10.8437 4.7093 6.38876 8.62272 4.68937L7.6128 7.33709C7.46432 7.73489 7.65009 8.22229 8.0992 8.3732C8.50778 8.51814 9.00809 8.33762 9.16266 7.90036L10.9241 3.20444C11.1307 2.40359 10.4039 2.11896 10.1419 2.12475L5.03073 2.00125C4.60325 1.97862 4.25627 2.26647 4.19288 2.67681C4.11486 3.18184 4.57257 3.5721 5.04057 3.6007L7.1233 3.66542C3.90475 5.50754 0.769297 9.60154 2.48625 15.387C3.34765 17.8584 7.30348 23.8244 15.2077 21.4539Z" fill="#444A5D"/>
</g>
</svg>
