<svg width="32" height="32" viewBox="0 0 32 32" fill="none" xmlns="http://www.w3.org/2000/svg">
<g id="icon/24x24/soundcloud">
<g id="Vector">
<path d="M24.3912 14.2821C24.183 14.2821 23.9772 14.2996 23.775 14.3344C23.451 13.23 22.8117 12.2323 21.9283 11.4694C20.831 10.5219 19.4262 10 17.9727 10C17.2044 10 16.4533 10.1434 15.74 10.4264C15.4724 10.5325 15.2967 10.7906 15.2967 11.0778V20.7772C15.2967 21.1643 15.6115 21.4782 15.9999 21.4782H24.3912C26.3811 21.4782 28 19.8641 28 17.8802C28 15.8962 26.3811 14.2821 24.3912 14.2821ZM24.3912 20.0761H16.703V11.5785C17.1149 11.4613 17.5403 11.4021 17.9727 11.4021C20.2437 11.4021 22.2146 13.0867 22.5571 15.3206C22.59 15.5348 22.7203 15.7219 22.9102 15.8273C23.1 15.9325 23.3281 15.9446 23.5281 15.8595C23.8015 15.7432 24.0919 15.6842 24.3912 15.6842C25.6057 15.6842 26.5938 16.6693 26.5938 17.8802C26.5938 19.091 25.6057 20.0761 24.3912 20.0761Z" fill="black"/>
<path d="M13.1757 10.101C12.7873 10.101 12.4725 10.4149 12.4725 10.8021V20.7772C12.4725 21.1644 12.7873 21.4783 13.1757 21.4783C13.564 21.4783 13.8788 21.1644 13.8788 20.7772V10.8021C13.8788 10.4149 13.564 10.101 13.1757 10.101Z" fill="black"/>
<path d="M10.3515 11.8561C9.96323 11.8561 9.64842 12.17 9.64842 12.5572V20.7772C9.64842 21.1644 9.96323 21.4783 10.3515 21.4783C10.7399 21.4783 11.0547 21.1644 11.0547 20.7772V12.5572C11.0547 12.17 10.7399 11.8561 10.3515 11.8561Z" fill="black"/>
<path d="M7.52733 14.355C7.13902 14.355 6.82421 14.6689 6.82421 15.056V20.7772C6.82421 21.1644 7.13902 21.4782 7.52733 21.4782C7.91565 21.4782 8.23046 21.1644 8.23046 20.7772V15.056C8.23046 14.6689 7.91565 14.355 7.52733 14.355Z" fill="black"/>
<path d="M4.70312 16.6076C4.31481 16.6076 4 16.9215 4 17.3086V18.5246C4 18.9117 4.31481 19.2256 4.70312 19.2256C5.09144 19.2256 5.40625 18.9117 5.40625 18.5246V17.3086C5.40625 16.9215 5.09144 16.6076 4.70312 16.6076Z" fill="black"/>
</g>
</g>
</svg>
