<svg width="32" height="32" viewBox="0 0 32 32" fill="none" xmlns="http://www.w3.org/2000/svg">
<g id="icon/24x24/spotify">
<path id="87409 (Traced)" fill-rule="evenodd" clip-rule="evenodd" d="M14.4623 2.69822C11.8855 2.9505 9.50391 3.8998 7.4158 5.50694C6.39893 6.28956 5.07838 7.76038 4.31525 8.96019C3.98567 9.47838 3.34411 10.7914 3.11429 11.4181C2.85732 12.1188 2.58343 13.1896 2.44866 14.0205C2.28371 15.0374 2.28371 16.9683 2.44866 17.9852C2.68188 19.4229 3.05081 20.5851 3.6823 21.8718C4.37225 23.2774 5.08966 24.2738 6.23848 25.422C7.38735 26.5702 8.38432 27.2872 9.79079 27.9768C11.0782 28.6079 12.2411 28.9766 13.6795 29.2097C14.6971 29.3745 16.629 29.3745 17.6465 29.2097C19.085 28.9766 20.2479 28.6079 21.5353 27.9768C22.9417 27.2872 23.9387 26.5702 25.0876 25.422C26.2364 24.2738 26.9538 23.2774 27.6438 21.8718C28.102 20.9381 28.3325 20.3261 28.5794 19.3878C28.9082 18.1381 28.9916 17.4531 28.9916 16.0029C28.9916 14.5526 28.9082 13.8676 28.5794 12.6179C28.3325 11.6796 28.102 11.0677 27.6438 10.134C26.9538 8.72831 26.2364 7.7319 25.0876 6.58368C23.9387 5.43552 22.9417 4.71853 21.5353 4.02897C20.2491 3.39842 19.0632 3.02223 17.6726 2.8036C16.9054 2.68299 15.1922 2.62675 14.4623 2.69822ZM16.6849 4.84222C19.3356 5.10003 21.6841 6.20995 23.5728 8.0976C25.4615 9.98524 26.5721 12.3324 26.8301 14.9816C27.0567 17.3088 26.4647 19.8455 25.2282 21.8457C24.3512 23.2643 22.9286 24.6861 21.5092 25.5626C19.5079 26.7983 16.9697 27.39 14.6412 27.1635C11.9905 26.9057 9.64198 25.7958 7.75325 23.9081C5.86453 22.0205 4.75397 19.6733 4.49601 17.0241C4.26942 14.6969 4.8614 12.1602 6.09785 10.1601C6.97483 8.7414 8.39743 7.31962 9.81689 6.44314C11.8176 5.20776 14.357 4.61581 16.6849 4.84222ZM11.5916 10.425C9.78975 10.539 8.97484 10.6491 8.683 10.8178C8.36652 11.0008 8.18122 11.3375 8.18488 11.7228C8.18806 12.0631 8.27095 12.2529 8.52056 12.4914C8.84095 12.7975 9.01054 12.8176 10.2084 12.6911C11.2753 12.5785 13.5777 12.4936 14.5408 12.5315C17.5156 12.6484 19.5355 13.0286 21.6136 13.8628C22.0874 14.053 22.2022 14.0799 22.4612 14.0614C23.3785 13.9959 23.7698 12.8689 23.0947 12.2365C22.8133 11.9729 21.4155 11.4475 20.0737 11.1009C17.763 10.504 14.4792 10.2423 11.5916 10.425ZM12.3485 14.5981C11.2105 14.6374 9.80342 14.7628 9.45151 14.8565C8.97301 14.9838 8.65278 15.3929 8.65774 15.8706C8.66243 16.3268 8.85196 16.6358 9.25368 16.8424C9.48648 16.962 9.72022 16.9649 10.626 16.8597C11.584 16.7483 14.5547 16.7021 15.5976 16.7823C17.6878 16.9429 19.2265 17.271 20.7001 17.8703C21.3708 18.1429 21.6683 18.1702 22.0193 17.9913C22.6093 17.6904 22.7803 16.9347 22.3777 16.4071C22.2392 16.2256 22.1151 16.145 21.6893 15.9601C20.3405 15.3744 18.6147 14.9479 16.707 14.7289C16.0121 14.6491 14.1121 14.5365 13.7056 14.5511C13.5908 14.5552 12.9801 14.5764 12.3485 14.5981ZM11.7482 18.644C10.9809 18.6978 9.82065 18.826 9.6342 18.8775C9.26114 18.9806 8.87644 19.4981 8.87764 19.8954C8.87879 20.2903 9.1995 20.7374 9.58811 20.8857C9.80969 20.9702 9.873 20.9702 10.7462 20.8843C12.0161 20.7593 13.8211 20.7222 14.9062 20.7987C16.8147 20.9333 18.066 21.1898 19.4213 21.7243C20.1389 22.0074 20.4344 22.0325 20.7827 21.8401C20.907 21.7714 21.0802 21.6134 21.1676 21.4888C21.3071 21.29 21.3265 21.219 21.3263 20.9062C21.326 20.405 21.1603 20.1699 20.6218 19.9067C19.5494 19.3824 17.8635 18.9534 16.0284 18.7379C15.3546 18.6587 12.4465 18.5949 11.7482 18.644Z" fill="white"/>
</g>
</svg>
