<svg width="19" height="18" viewBox="0 0 19 18" fill="none" xmlns="http://www.w3.org/2000/svg">
<g id="icon/24x24/video">
<g id="Vector">
<path fill-rule="evenodd" clip-rule="evenodd" d="M12.7692 9C12.7692 7.85089 12.6714 6.31199 12.5904 5.23778C12.5565 4.78839 12.2104 4.43323 11.7668 4.39086C10.6825 4.28726 9.12159 4.16129 7.96154 4.16129C6.80149 4.16129 5.24054 4.28726 4.15623 4.39086C3.71272 4.43323 3.36655 4.78839 3.33268 5.23778C3.2517 6.31199 3.15385 7.85089 3.15385 9C3.15385 10.1491 3.2517 11.688 3.33268 12.7622C3.36655 13.2116 3.71272 13.5668 4.15623 13.6091C5.24054 13.7127 6.80149 13.8387 7.96154 13.8387C9.12159 13.8387 10.6825 13.7127 11.7668 13.6091C12.2104 13.5668 12.5565 13.2116 12.5904 12.7622C12.6714 11.688 12.7692 10.1491 12.7692 9ZM13.7409 5.14992C13.8221 6.22645 13.9231 7.8033 13.9231 9C13.9231 10.1967 13.8221 11.7735 13.7409 12.8501C13.6647 13.8609 12.8809 14.6692 11.8759 14.7652C10.789 14.8691 9.18082 15 7.96154 15C6.74226 15 5.13406 14.8691 4.04719 14.7652C3.04215 14.6692 2.25834 13.8609 2.18214 12.8501C2.10098 11.7735 2 10.1967 2 9C2 7.8033 2.10098 6.22645 2.18214 5.14992C2.25834 4.13905 3.04215 3.33079 4.04719 3.23476C5.13406 3.13092 6.74226 3 7.96154 3C9.18082 3 10.789 3.13092 11.8759 3.23477C12.8809 3.33079 13.6647 4.13905 13.7409 5.14992Z" fill="#212129"/>
<path fill-rule="evenodd" clip-rule="evenodd" d="M16.7264 5.4093C16.8965 5.5151 17 5.70199 17 5.90323V12.0968C17 12.298 16.8965 12.4849 16.7264 12.5907C16.5563 12.6965 16.3439 12.7061 16.1651 12.6161L13.0881 11.0677C12.8927 10.9694 12.7692 10.7683 12.7692 10.5484V7.45161C12.7692 7.23168 12.8927 7.03062 13.0881 6.93227L16.1651 5.38388C16.3439 5.29388 16.5563 5.3035 16.7264 5.4093ZM13.9231 7.81047V10.1895L15.8462 11.1573L15.8462 6.84273L13.9231 7.81047Z" fill="#212129"/>
</g>
</g>
</svg>
