<svg width="24" height="24" viewBox="0 0 24 24" fill="none" xmlns="http://www.w3.org/2000/svg">
<g id="icon/24x24/mashup">
<g id="Vector">
<path d="M8.94813 17.2501H2.88508C1.71098 17.2501 1.71098 19 2.88508 19H8.94813C10.1222 19 10.1222 17.2501 8.94813 17.2501Z" fill="black"/>
<path d="M15.0486 9.81925H19.0244L17.49 11.3629C16.6451 12.1816 17.8813 13.4628 18.6951 12.6066L21.7577 9.55677C22.0808 9.19429 22.0808 8.66932 21.7577 8.31309L18.6951 5.26326C18.5274 5.10077 18.3348 5.00078 18.0739 5.00078C17.2912 5.00078 16.9309 5.95072 17.49 6.50694L19.0244 8.0506H15.0486C13.8745 8.0506 13.8745 9.81925 15.0486 9.81925Z" fill="black"/>
<path d="M21.1055 17.2313H15.5021L9.69995 8.44429C9.53844 8.21305 9.24647 8.05056 8.94828 8.05056H4.97251L6.53797 6.50689C7.09085 5.95067 6.69949 4.96948 5.8857 5.00073C5.65585 5.00073 5.46327 5.10072 5.30176 5.26321L2.27023 8.31305C1.90992 8.67552 1.90992 9.2005 2.27023 9.55673L5.30176 12.6066C6.11555 13.4565 7.38904 12.1816 6.53797 11.3629L4.97251 9.81921H8.4948L14.328 18.6062C14.4895 18.8375 14.7504 19 15.0424 19H21.1055C22.2795 19 22.2795 17.2313 21.1055 17.2313Z" fill="black"/>
</g>
</g>
</svg>
