<svg width="24" height="24" viewBox="0 0 24 24" fill="none" xmlns="http://www.w3.org/2000/svg">
<g id="icon/24x24/volume down">
<g id="Vector" opacity="0.5">
<path fill-rule="evenodd" clip-rule="evenodd" d="M11.5457 4.73972C11.518 4.5659 11.3052 4.47296 11.1545 4.62495L7.98018 7.826C6.92171 8.89337 5.48542 9.49312 3.9877 9.49312C3.73959 9.49312 3.53846 9.69572 3.53846 9.94564V14.0544C3.53846 14.3043 3.7396 14.5069 3.9877 14.5069C5.48542 14.5069 6.92171 15.1066 7.98018 16.174L11.1545 19.3751C11.3052 19.527 11.518 19.4341 11.5457 19.2603C11.8531 17.3313 12.2564 14.3455 12.2564 12C12.2564 9.65454 11.8531 6.66871 11.5457 4.73972ZM10.0661 3.52973C11.0771 2.51017 12.8319 3.03295 13.0647 4.49411C13.3737 6.43286 13.7949 9.52248 13.7949 12C13.7949 14.4775 13.3737 17.5671 13.0647 19.5059C12.8319 20.967 11.0771 21.4898 10.0661 20.4703L6.89173 17.2692C6.12182 16.4928 5.07711 16.0566 3.9877 16.0566C2.88992 16.0566 2 15.1602 2 14.0544V9.94564C2 8.83984 2.88993 7.94341 3.9877 7.94341C5.07711 7.94341 6.12182 7.50717 6.89173 6.73079L10.0661 3.52973Z" fill="#444A5D"/>
<path fill-rule="evenodd" clip-rule="evenodd" d="M16.2253 9.2253C16.5257 8.9249 17.0128 8.9249 17.3132 9.2253L18.8205 10.7327L20.3279 9.2253C20.6283 8.9249 21.1153 8.9249 21.4157 9.2253C21.7161 9.52571 21.7161 10.0128 21.4157 10.3132L19.9084 11.8205L21.4157 13.3279C21.7161 13.6283 21.7161 14.1153 21.4157 14.4157C21.1153 14.7161 20.6283 14.7161 20.3279 14.4157L18.8205 12.9084L17.3132 14.4157C17.0128 14.7161 16.5257 14.7161 16.2253 14.4157C15.9249 14.1153 15.9249 13.6283 16.2253 13.3279L17.7327 11.8205L16.2253 10.3132C15.9249 10.0128 15.9249 9.52571 16.2253 9.2253Z" fill="#444A5D"/>
</g>
</g>
</svg>
