<svg width="25" height="24" viewBox="0 0 25 24" fill="none" xmlns="http://www.w3.org/2000/svg">
<g id="icon/24x24/message">
<path id="Vector 13 (Stroke)" fill-rule="evenodd" clip-rule="evenodd" d="M12.5 5.45455C10.2356 5.45455 7.15128 5.64867 5.19268 5.79141C4.54222 5.83882 4.03846 6.35372 4.03846 6.98262V7.69328L11.8774 11.8107C12.2646 12.0141 12.7354 12.0141 13.1226 11.8107L20.9615 7.69328V6.98261C20.9615 6.35372 20.4578 5.83882 19.8073 5.79141C17.8487 5.64867 14.7644 5.45455 12.5 5.45455ZM20.9615 9.35722L13.8698 13.0822C13.0179 13.5296 11.9821 13.5296 11.1302 13.0822L4.03846 9.35722L4.03846 17.0174C4.03846 17.6463 4.54222 18.1612 5.19268 18.2086C7.15128 18.3513 10.2356 18.5455 12.5 18.5455C14.7644 18.5455 17.8487 18.3513 19.8073 18.2086C20.4578 18.1612 20.9615 17.6463 20.9615 17.0174V9.35722ZM5.07444 4.34117C7.03421 4.19834 10.1707 4 12.5 4C14.8293 4 17.9658 4.19834 19.9256 4.34117C21.3902 4.44791 22.5 5.60588 22.5 6.98261V17.0174C22.5 18.3941 21.3902 19.5521 19.9256 19.6588C17.9658 19.8017 14.8293 20 12.5 20C10.1707 20 7.03421 19.8017 5.07444 19.6588C3.60982 19.5521 2.5 18.3941 2.5 17.0174L2.5 6.98262C2.5 5.60589 3.60982 4.44791 5.07444 4.34117Z" fill="white"/>
</g>
</svg>
