<svg width="18" height="18" viewBox="0 0 18 18" fill="none" xmlns="http://www.w3.org/2000/svg">
<g id="icon/24x24/close_2">
<path id="Vector" d="M10.0994 9.00009L14.7719 4.32729C15.076 4.02334 15.076 3.53191 14.7719 3.22796C14.468 2.92401 13.9766 2.92401 13.6726 3.22796L8.99993 7.90076L4.32737 3.22796C4.02329 2.92401 3.532 2.92401 3.22806 3.22796C2.92398 3.53191 2.92398 4.02334 3.22806 4.32729L7.90062 9.00009L3.22806 13.6729C2.92398 13.9768 2.92398 14.4683 3.22806 14.7722C3.37953 14.9238 3.5787 15 3.77772 15C3.97674 15 4.17576 14.9238 4.32737 14.7722L8.99993 10.0994L13.6726 14.7722C13.8242 14.9238 14.0233 15 14.2223 15C14.4213 15 14.6203 14.9238 14.7719 14.7722C15.076 14.4683 15.076 13.9768 14.7719 13.6729L10.0994 9.00009Z" fill="#212129"/>
</g>
</svg>
