<svg width="32" height="32" viewBox="0 0 32 32" fill="none" xmlns="http://www.w3.org/2000/svg">
<g id="icon/24x24/apple">
<path id="apple (Traced)" fill-rule="evenodd" clip-rule="evenodd" d="M19.8201 2.7391C18.697 2.9652 17.6815 3.54434 16.7167 4.50912C15.7399 5.48594 15.1423 6.54578 14.864 7.79487C14.7793 8.17487 14.7758 9.35386 14.8589 9.55389C14.8915 9.6327 14.9007 9.69722 14.879 9.69722C14.8574 9.69722 14.4357 9.55691 13.9419 9.38544C12.7639 8.97641 12.1262 8.84403 11.5071 8.87999C10.2835 8.95119 8.85837 9.44908 7.78644 10.1798C7.24919 10.5461 6.4095 11.3972 6.04654 11.9436C5.24678 13.1471 4.82805 14.4797 4.69301 16.2512C4.5218 18.4962 5.19361 21.3871 6.53657 24.1846C7.6871 26.5811 9.0816 28.2745 10.4645 28.9543C11.5973 29.5112 12.4923 29.465 14.5039 28.7456C15.5958 28.3551 15.9268 28.2805 16.3798 28.3228C16.8766 28.3692 17.2453 28.4782 18.0682 28.8218C18.4727 28.9907 18.9445 29.1664 19.1165 29.2122C19.6115 29.3442 20.3526 29.371 20.8103 29.2734C22.5029 28.9127 24.1449 27.1812 25.6344 24.1863C26.1237 23.2026 26.5434 22.1826 26.5434 21.9776C26.5434 21.6223 26.2919 21.3218 25.688 20.9556C24.716 20.3663 24.0895 19.7368 23.6902 18.9484C23.249 18.077 23.1042 16.7039 23.3467 15.6909C23.4416 15.2945 23.7503 14.6065 23.994 14.2486C24.2429 13.8831 24.838 13.2792 25.3279 12.8951C26.0224 12.3507 26.0712 12.0398 25.5697 11.3569C24.6774 10.1421 23.2163 9.25984 21.5577 8.9344C21.0623 8.8372 19.7509 8.80468 19.2641 8.87759L18.9948 8.91788L19.3785 8.5458C19.8576 8.08121 20.3353 7.41549 20.6278 6.80461C21.0893 5.84061 21.2722 5.09009 21.3134 3.99017C21.342 3.22907 21.3395 3.20354 21.2188 3.02597C20.977 2.66994 20.5741 2.58733 19.8201 2.7391ZM19.7158 4.50469C19.7158 4.57265 19.6593 4.85108 19.5903 5.12329C19.2684 6.39187 18.422 7.54465 17.4201 8.07861C17.1072 8.24544 16.5772 8.44636 16.4502 8.44636C16.2798 8.44636 16.4428 7.74114 16.7696 7.0652C17.138 6.30317 17.7546 5.56141 18.4389 5.05705C18.7412 4.83435 19.5638 4.38106 19.6659 4.38106C19.6933 4.38106 19.7158 4.43668 19.7158 4.50469ZM21.6182 10.5525C22.4631 10.7714 23.3534 11.2528 23.8257 11.746L24.0007 11.9286L23.513 12.4174C22.2553 13.6781 21.676 15.0565 21.6772 16.7854C21.6785 18.4804 22.1661 19.8117 23.2111 20.9726C23.505 21.2992 24.1466 21.8373 24.5335 22.0817C24.6642 22.1643 24.7712 22.2599 24.7713 22.2942C24.7713 22.3285 24.6425 22.6382 24.4849 22.9825C23.3239 25.5199 21.918 27.2612 20.6869 27.6867C20.1557 27.8703 19.5329 27.7696 18.5767 27.3454C17.8042 27.0029 17.2991 26.8563 16.6379 26.7827C15.8349 26.6934 15.3518 26.7812 14.0139 27.2596C12.1838 27.9138 11.6503 27.924 10.7633 27.3216C10.3861 27.0655 9.61822 26.2625 9.23207 25.7203C8.1286 24.1712 7.16205 22.0148 6.63106 19.9174C6.32992 18.7276 6.24825 18.1019 6.24955 16.9939C6.25132 15.488 6.44317 14.5525 6.97098 13.4759C7.51438 12.3673 8.27745 11.6122 9.4223 11.0499C10.2716 10.6328 10.9105 10.4657 11.6634 10.4637C12.2994 10.462 12.4213 10.493 14.044 11.0698C14.4933 11.2296 15.0561 11.3998 15.2947 11.4482C15.9128 11.5734 16.2454 11.5091 17.5962 11.0035C19.0432 10.4619 19.4725 10.3687 20.3934 10.3963C20.9295 10.4125 21.221 10.4497 21.6182 10.5525Z" fill="black" stroke="black" stroke-width="0.2"/>
</g>
</svg>
