<svg width="18" height="18" viewBox="0 0 18 18" fill="none" xmlns="http://www.w3.org/2000/svg">
<g id="icon/24x24/filters">
<g id="Vector">
<path fill-rule="evenodd" clip-rule="evenodd" d="M6.69229 3.40714C5.73642 3.40714 4.96152 4.18425 4.96152 5.14286C4.96152 6.10147 5.73642 6.87857 6.69229 6.87857C7.64817 6.87857 8.42306 6.10147 8.42306 5.14286C8.42306 4.18425 7.64817 3.40714 6.69229 3.40714ZM3.80768 5.14286C3.80768 3.54518 5.09916 2.25 6.69229 2.25C8.28542 2.25 9.57691 3.54518 9.57691 5.14286C9.57691 6.74054 8.28542 8.03571 6.69229 8.03571C5.09916 8.03571 3.80768 6.74054 3.80768 5.14286Z" fill="#212129"/>
<path fill-rule="evenodd" clip-rule="evenodd" d="M1.5 5.14294C1.5 4.82341 1.7583 4.56437 2.07692 4.56437H4.38461C4.70324 4.56437 4.96152 4.82332 4.96152 5.14286C4.96152 5.46239 4.70324 5.72151 4.38461 5.72151H2.07692C1.7583 5.72151 1.5 5.46248 1.5 5.14294Z" fill="#212129"/>
<path fill-rule="evenodd" clip-rule="evenodd" d="M8.42306 5.14286C8.42306 4.82332 8.68133 4.56445 8.99995 4.56445L15.923 4.56445C16.2417 4.56445 16.4999 4.82349 16.4999 5.14302C16.4999 5.46256 16.2417 5.7216 15.923 5.7216L8.99995 5.7216C8.68133 5.7216 8.42306 5.46239 8.42306 5.14286Z" fill="#212129"/>
<path fill-rule="evenodd" clip-rule="evenodd" d="M11.3077 11.1214C12.2635 11.1214 13.0384 11.8985 13.0384 12.8571C13.0384 13.8157 12.2635 14.5928 11.3077 14.5928C10.3518 14.5928 9.5769 13.8157 9.5769 12.8571C9.5769 11.8985 10.3518 11.1214 11.3077 11.1214ZM14.1923 12.8571C14.1923 11.2594 12.9008 9.96423 11.3077 9.96423C9.71454 9.96423 8.42306 11.2594 8.42306 12.8571C8.42306 14.4548 9.71454 15.7499 11.3077 15.7499C12.9008 15.7499 14.1923 14.4548 14.1923 12.8571Z" fill="#212129"/>
<path fill-rule="evenodd" clip-rule="evenodd" d="M16.5 12.8572C16.5 12.5377 16.2417 12.2786 15.9231 12.2786H13.6154C13.2967 12.2786 13.0384 12.5376 13.0384 12.8571C13.0384 13.1766 13.2967 13.4358 13.6154 13.4358H15.9231C16.2417 13.4358 16.5 13.1767 16.5 12.8572Z" fill="#212129"/>
<path fill-rule="evenodd" clip-rule="evenodd" d="M9.5769 12.8571C9.5769 12.5376 9.31864 12.2787 9.00001 12.2787L2.07694 12.2787C1.75831 12.2787 1.50002 12.5377 1.50002 12.8573C1.50002 13.1768 1.75831 13.4358 2.07694 13.4358L9.00001 13.4358C9.31864 13.4358 9.5769 13.1766 9.5769 12.8571Z" fill="#212129"/>
</g>
</g>
</svg>
