<svg width="188" height="148" viewBox="0 0 188 148" fill="none" xmlns="http://www.w3.org/2000/svg">
<g id="Vector">
<path d="M16.4971 147.656H11.5906V135.966C11.5906 134.865 11.2351 134.063 10.524 133.559C9.86034 133.054 9.10185 132.802 8.24855 132.802C7.39526 132.802 6.63677 133.054 5.97309 133.559C5.30941 134.063 4.97758 134.865 4.97758 135.966V147.656H0V136.928C0 133.811 0.829596 131.725 2.48879 130.67C4.19539 129.616 6.0679 129.043 8.10634 128.951C9.19666 128.951 10.2633 129.066 11.3062 129.295C12.3491 129.524 13.2972 129.983 14.1505 130.67C14.8616 130.074 15.6912 129.662 16.6393 129.433C17.6348 129.158 18.6541 128.997 19.697 128.951C21.7828 128.951 23.7027 129.479 25.4567 130.533C27.2107 131.587 28.0877 133.719 28.0877 136.928V147.656H25.599C24.8879 147.656 24.2953 147.45 23.8213 147.037C23.3946 146.579 23.1813 146.006 23.1813 145.318V135.966C23.1813 134.865 22.8257 134.063 22.1147 133.559C21.451 133.054 20.6925 132.802 19.8392 132.802C18.9859 132.802 18.2037 133.054 17.4926 133.559C16.8289 134.063 16.4971 134.865 16.4971 135.966V147.656Z" fill="url(#paint0_linear_1387_14891)"/>
<path d="M35.6862 146.006C34.6907 145.181 33.9796 144.08 33.5529 142.705C33.1263 141.284 32.913 139.817 32.913 138.304C32.913 137.066 33.0789 135.828 33.4107 134.59C33.79 133.352 34.3588 132.321 35.1173 131.496C36.3498 130.12 37.9379 129.318 39.8816 129.089C41.8252 128.814 43.5792 128.951 45.1436 129.501C46.945 130.189 48.2723 131.381 49.1256 133.077C49.9315 134.59 50.3345 136.355 50.3345 138.372C50.3345 139.84 50.1685 141.1 49.8367 142.155C49.5049 143.209 49.0782 144.103 48.5568 144.837C47.419 146.35 45.9732 147.289 44.2192 147.656C42.6548 148.069 41.0667 148.092 39.4549 147.725C37.8905 147.404 36.6343 146.831 35.6862 146.006ZM39.0994 133.903C38.1039 134.957 37.6535 136.539 37.7483 138.648C37.8431 140.711 38.2461 142.155 38.9571 142.98C39.2416 143.347 39.7393 143.668 40.4504 143.943C41.1615 144.172 41.8726 144.195 42.5837 144.011C43.3422 143.782 44.0058 143.255 44.5747 142.43C45.1436 141.605 45.4517 140.275 45.4991 138.441C45.4991 136.791 45.2147 135.553 44.6458 134.728C44.1243 133.903 43.5081 133.375 42.797 133.146C42.0859 132.917 41.3748 132.917 40.6637 133.146C39.9527 133.33 39.4312 133.582 39.0994 133.903Z" fill="url(#paint1_linear_1387_14891)"/>
<path d="M71.5146 147.656H69.0258C68.3147 147.656 67.7221 147.45 67.2481 147.037C66.8214 146.579 66.6081 146.006 66.6081 145.318V135.966C66.6081 134.865 66.2525 134.063 65.5415 133.559C64.8778 133.054 64.1193 132.802 63.266 132.802C62.4127 132.802 61.6542 133.054 60.9905 133.559C60.3269 134.063 59.995 134.865 59.995 135.966V147.656H55.0175V136.928C55.0175 133.811 55.847 131.725 57.5062 130.67C59.2128 129.616 61.0854 129.043 63.1238 128.951C65.2096 128.951 67.1295 129.479 68.8836 130.533C70.6376 131.587 71.5146 133.719 71.5146 136.928V147.656Z" fill="url(#paint2_linear_1387_14891)"/>
<path d="M78.5441 146.006C77.5486 145.181 76.8375 144.08 76.4109 142.705C75.9842 141.284 75.7709 139.817 75.7709 138.304C75.7709 137.066 75.9368 135.828 76.2687 134.59C76.6479 133.352 77.2168 132.321 77.9753 131.496C79.2078 130.12 80.7959 129.318 82.7395 129.089C84.6831 128.814 86.4371 128.951 88.0015 129.501C89.8029 130.189 91.1303 131.381 91.9836 133.077C92.7895 134.59 93.1924 136.355 93.1924 138.372C93.1924 139.84 93.0265 141.1 92.6947 142.155C92.3628 143.209 91.9362 144.103 91.4147 144.837C90.277 146.35 88.8311 147.289 87.0771 147.656C85.5127 148.069 83.9246 148.092 82.3129 147.725C80.7485 147.404 79.4922 146.831 78.5441 146.006ZM81.9573 133.903C80.9618 134.957 80.5114 136.539 80.6063 138.648C80.7011 140.711 81.104 142.155 81.8151 142.98C82.0995 143.347 82.5973 143.668 83.3084 143.943C84.0194 144.172 84.7305 144.195 85.4416 144.011C86.2001 143.782 86.8638 143.255 87.4326 142.43C88.0015 141.605 88.3096 140.275 88.357 138.441C88.357 136.791 88.0726 135.553 87.5038 134.728C86.9823 133.903 86.366 133.375 85.6549 133.146C84.9439 132.917 84.2328 132.917 83.5217 133.146C82.8106 133.33 82.2892 133.582 81.9573 133.903Z" fill="url(#paint3_linear_1387_14891)"/>
<path d="M97.4487 141.605H102.284C102.332 142.521 102.687 143.209 103.351 143.668C104.062 144.126 105.01 144.355 106.195 144.355C107.048 144.355 107.783 144.195 108.399 143.874C108.968 143.553 109.253 143.117 109.253 142.567C109.253 141.742 108.257 141.123 106.266 140.711C105.413 140.573 104.773 140.436 104.346 140.298C101.834 139.702 100.151 138.991 99.2976 138.166C98.3494 137.341 97.8754 136.241 97.8754 134.865C97.8754 133.123 98.5628 131.679 99.9375 130.533C101.36 129.479 103.209 128.951 105.484 128.951C107.949 128.951 109.916 129.479 111.386 130.533C112.761 131.679 113.495 133.169 113.59 135.003H110.533C109.632 135.003 108.945 134.613 108.471 133.834C108.281 133.65 108.091 133.467 107.902 133.284C107.333 132.871 106.551 132.665 105.555 132.665C104.607 132.665 103.896 132.802 103.422 133.077C102.995 133.352 102.782 133.765 102.782 134.315C102.782 135.049 104.014 135.668 106.479 136.172C106.764 136.264 107.001 136.332 107.191 136.378C107.428 136.424 107.641 136.447 107.831 136.447C110.248 137.043 111.931 137.731 112.879 138.51C113.78 139.335 114.23 140.436 114.23 141.811C114.23 143.828 113.472 145.387 111.955 146.487C110.533 147.496 108.399 148 105.555 148C102.853 148 100.838 147.473 99.5109 146.418C98.1361 145.364 97.4487 143.828 97.4487 141.811V141.605Z" fill="url(#paint4_linear_1387_14891)"/>
<path d="M121.26 146.006C120.264 145.181 119.553 144.08 119.127 142.705C118.7 141.284 118.487 139.817 118.487 138.304C118.487 137.066 118.653 135.828 118.984 134.59C119.364 133.352 119.932 132.321 120.691 131.496C121.924 130.12 123.512 129.318 125.455 129.089C127.399 128.814 129.153 128.951 130.717 129.501C132.519 130.189 133.846 131.381 134.699 133.077C135.505 134.59 135.908 136.355 135.908 138.372C135.908 139.84 135.742 141.1 135.41 142.155C135.079 143.209 134.652 144.103 134.13 144.837C132.993 146.35 131.547 147.289 129.793 147.656C128.228 148.069 126.64 148.092 125.029 147.725C123.464 147.404 122.208 146.831 121.26 146.006ZM124.673 133.903C123.678 134.957 123.227 136.539 123.322 138.648C123.417 140.711 123.82 142.155 124.531 142.98C124.815 143.347 125.313 143.668 126.024 143.943C126.735 144.172 127.446 144.195 128.157 144.011C128.916 143.782 129.58 143.255 130.148 142.43C130.717 141.605 131.025 140.275 131.073 138.441C131.073 136.791 130.788 135.553 130.219 134.728C129.698 133.903 129.082 133.375 128.371 133.146C127.66 132.917 126.949 132.917 126.237 133.146C125.526 133.33 125.005 133.582 124.673 133.903Z" fill="url(#paint5_linear_1387_14891)"/>
<path d="M157.088 147.656H154.599C153.888 147.656 153.296 147.45 152.822 147.037C152.395 146.579 152.182 146.006 152.182 145.318V135.966C152.182 134.865 151.826 134.063 151.115 133.559C150.451 133.054 149.693 132.802 148.84 132.802C147.986 132.802 147.228 133.054 146.564 133.559C145.901 134.063 145.569 134.865 145.569 135.966V147.656H140.591V136.928C140.591 133.811 141.421 131.725 143.08 130.67C144.787 129.616 146.659 129.043 148.697 128.951C150.783 128.951 152.703 129.479 154.457 130.533C156.211 131.587 157.088 133.719 157.088 136.928V147.656Z" fill="url(#paint6_linear_1387_14891)"/>
<path d="M162.198 129.364H164.758C165.421 129.364 165.99 129.593 166.464 130.052C166.938 130.51 167.175 131.06 167.175 131.702V147.656H162.198V129.364ZM162.198 124H164.758C165.421 124 165.99 124.229 166.464 124.688C166.938 125.146 167.175 125.696 167.175 126.338V127.782H162.198V124Z" fill="url(#paint7_linear_1387_14891)"/>
<path d="M184.445 142.017H188C187.479 143.943 186.483 145.41 185.013 146.418C183.544 147.473 181.695 148 179.467 148C176.765 148 174.655 147.152 173.138 145.456C171.621 143.805 170.863 141.444 170.863 138.372C170.863 135.438 171.598 133.146 173.067 131.496C174.584 129.799 176.694 128.951 179.396 128.951C182.24 128.951 184.445 129.777 186.009 131.427C186.862 132.436 187.479 133.605 187.858 134.934H182.88C182.643 134.476 182.406 134.132 182.169 133.903C181.553 133.261 180.676 132.94 179.538 132.94C178.495 132.94 177.642 133.261 176.978 133.903C176.125 134.819 175.698 136.332 175.698 138.441C175.698 140.55 176.125 142.04 176.978 142.911C177.594 143.645 178.519 144.011 179.751 144.011C180.557 144.011 181.245 143.851 181.814 143.53C181.956 143.484 182.074 143.415 182.169 143.324C182.311 143.186 182.454 143.049 182.596 142.911C182.691 142.774 182.88 142.59 183.165 142.361C183.449 142.132 183.876 142.017 184.445 142.017Z" fill="url(#paint8_linear_1387_14891)"/>
<path fill-rule="evenodd" clip-rule="evenodd" d="M92.4193 0.140328C92.0767 0.213244 91.5341 0.36767 91.2133 0.483286C90.8926 0.598991 90.3979 0.831033 90.1139 0.999119C89.8301 1.16711 89.3839 1.51007 89.1224 1.76112C88.8609 2.01216 88.5378 2.43165 88.4043 2.69318C88.2709 2.95481 88.1201 3.39266 88.0692 3.66623C88.0049 4.01154 88.0067 4.30746 88.075 4.63395C88.1291 4.89259 88.276 5.32411 88.4015 5.59288C88.5427 5.89567 88.8527 6.2958 89.2166 6.645C89.6137 7.02613 90.0478 7.32748 90.5576 7.5759C90.9724 7.778 91.578 8.01628 91.9035 8.10557C92.3641 8.23168 92.8392 8.26805 94.0436 8.26913C95.4154 8.27031 95.6692 8.24634 96.2709 8.05862C96.6444 7.9421 97.237 7.70327 97.5877 7.52776C97.9509 7.34611 98.4677 6.97764 98.788 6.67205C99.0975 6.37686 99.4884 5.883 99.6569 5.57452C99.9433 5.0499 99.9631 4.95827 99.9631 4.1543C99.9631 3.34689 99.9441 3.26022 99.6505 2.72213C99.4638 2.37999 99.1216 1.95489 98.8008 1.66649C98.5055 1.40097 97.9844 1.03784 97.6429 0.859621C97.3013 0.681313 96.7616 0.456869 96.4435 0.360795C96.1253 0.26472 95.6219 0.142589 95.3246 0.0894855C95.0275 0.036382 94.3923 -0.00378688 93.9131 0.000284084C93.4339 0.00426458 92.7617 0.0673224 92.4193 0.140328ZM70.2292 7.32422C70.0038 7.37081 69.553 7.5389 69.2275 7.69766C68.8817 7.86629 68.4255 8.19595 68.1306 8.49032C67.8529 8.76742 67.531 9.19623 67.4153 9.44311C67.2506 9.79438 67.213 10.004 67.2424 10.4068C67.2707 10.7958 67.3429 11.0037 67.538 11.2578C67.6799 11.4427 67.9778 11.6738 68.1999 11.7714C68.422 11.8689 68.8167 11.9706 69.0769 11.9973C69.369 12.0273 69.7668 11.9907 70.1159 11.9019C70.4271 11.8227 70.8941 11.651 71.1537 11.5203C71.4132 11.3897 71.8391 11.0707 72.1 10.8114C72.361 10.5521 72.6424 10.2097 72.7254 10.0504C72.8083 9.891 72.9106 9.57727 72.9528 9.35309C72.9964 9.12141 72.9936 8.77818 72.9464 8.55799C72.9005 8.34494 72.7606 8.06079 72.6353 7.92645C72.5099 7.7922 72.2457 7.60041 72.0479 7.50017C71.8503 7.40003 71.4525 7.30033 71.1638 7.27871C70.8752 7.25709 70.4546 7.27763 70.2292 7.32422ZM117.266 8.55871C117.166 8.58422 116.992 8.68962 116.879 8.79284C116.749 8.9118 116.674 9.08577 116.674 9.26797C116.674 9.4261 116.768 9.69315 116.882 9.86151C116.996 10.0298 117.252 10.259 117.451 10.3709C117.679 10.4995 117.967 10.5749 118.233 10.5759C118.519 10.5769 118.728 10.5187 118.888 10.3941C119.017 10.2933 119.148 10.1316 119.179 10.0347C119.21 9.93777 119.155 9.67841 119.057 9.45813C118.929 9.17171 118.765 8.99277 118.482 8.82921C118.264 8.70346 117.942 8.5807 117.767 8.55636C117.592 8.53211 117.366 8.53311 117.266 8.55871ZM93.0806 11.2938C92.8013 11.3326 92.2685 11.4556 91.8967 11.5672C91.5248 11.6788 90.9541 11.9085 90.6286 12.0777C90.303 12.247 89.8181 12.5636 89.551 12.7813C89.2839 12.999 88.899 13.3758 88.6957 13.6187C88.4925 13.8616 88.1919 14.3372 88.0277 14.6756C87.8635 15.014 87.6833 15.5636 87.6272 15.8969C87.571 16.2302 87.4684 18.5587 87.3989 21.0714C87.3012 24.6115 87.2411 25.7519 87.1322 26.1375C87.0549 26.4111 86.8266 26.9666 86.6247 27.3719C86.3777 27.8683 86.0477 28.3323 85.6136 28.794C85.2593 29.171 84.6956 29.6595 84.3611 29.8797C84.0266 30.0998 83.5069 30.3822 83.2063 30.5073C82.9056 30.6324 82.3933 30.8062 82.068 30.8935C81.6737 30.9994 81.1267 31.0542 80.4289 31.0578C79.842 31.0609 79.1614 31.0099 78.8807 30.9419C78.6052 30.8751 78.052 30.6695 77.6513 30.485C77.2506 30.3005 76.6714 29.9415 76.3643 29.687C76.0572 29.4326 75.6115 28.934 75.3739 28.579C75.1363 28.2239 74.8384 27.6413 74.712 27.2842C74.5205 26.7434 74.4711 26.3935 74.4164 25.1876C74.3614 23.9767 74.3139 23.6419 74.126 23.1389C74.0025 22.8082 73.7137 22.2762 73.4842 21.9568C73.2548 21.6374 72.847 21.2075 72.5781 21.0013C72.3091 20.7952 71.8585 20.5217 71.5767 20.3935C71.2949 20.2654 70.7842 20.1015 70.4419 20.0295C70.0995 19.9574 69.553 19.8981 69.2275 19.8975C68.9019 19.8971 68.3077 19.9751 67.907 20.071C67.5063 20.1669 66.9735 20.3351 66.7231 20.4447C66.4726 20.5542 65.9862 20.8239 65.6419 21.0439C65.2978 21.2639 64.7908 21.6552 64.5153 21.9136C64.2399 22.1718 63.8395 22.6274 63.6256 22.926C63.4117 23.2245 63.158 23.6112 63.0619 23.7854C62.9658 23.9595 62.8006 24.3259 62.6948 24.5996C62.5889 24.8732 62.4602 25.3007 62.4086 25.5495C62.3571 25.7982 62.2726 26.4903 62.2211 27.0874C62.1696 27.6845 62.0866 28.6818 62.0368 29.3038C61.9871 29.9257 61.9049 30.9435 61.8544 31.5654C61.8037 32.1874 61.722 33.3069 61.6726 34.0532C61.6232 34.7996 61.5397 36.1634 61.4871 37.0839C61.4345 38.0043 61.3489 39.4228 61.297 40.2361C61.228 41.3166 61.1424 41.921 60.9792 42.4803C60.8564 42.9014 60.6483 43.4573 60.5167 43.7156C60.3852 43.974 60.1222 44.413 59.9323 44.6912C59.7425 44.9694 59.3001 45.4609 58.9494 45.7835C58.5986 46.1061 58.0662 46.5 57.7662 46.6588C57.4662 46.8176 57.0444 47.0095 56.8287 47.085C56.6129 47.1607 56.1571 47.2619 55.8158 47.3099C55.3961 47.3691 54.9826 47.3657 54.5388 47.2994C54.14 47.2399 53.6276 47.078 53.2329 46.8866C52.8127 46.6829 52.3851 46.3759 52.0215 46.017C51.6121 45.6129 51.3491 45.2399 51.0526 44.6429C50.7961 44.1268 50.5957 43.5612 50.5109 43.1145C50.4345 42.7122 50.3763 41.883 50.3763 41.1977C50.3763 40.4271 50.3248 39.7669 50.2342 39.3737C50.1561 39.0348 49.9464 38.4626 49.7683 38.1021C49.5374 37.6349 49.2794 37.2934 48.8692 36.9122C48.4803 36.5509 48.1222 36.3134 47.7642 36.1793C47.3279 36.0159 47.0957 35.9872 46.4488 36.0169C45.788 36.0472 45.5664 36.1002 45.0541 36.3507C44.7192 36.5145 44.1815 36.8935 43.8593 37.193C43.5371 37.4923 43.1347 37.9262 42.9649 38.157C42.7953 38.3877 42.507 38.8615 42.3242 39.2098C42.1414 39.5581 41.8935 40.1687 41.7733 40.5668C41.653 40.9648 41.5129 41.5958 41.4619 41.969C41.4109 42.3422 41.324 43.7059 41.2686 44.9996C41.2133 46.2933 41.1296 48.1252 41.0827 49.0706C41.0358 50.0159 40.9986 53.0285 41 55.765C41.0015 58.5016 41.0407 61.2699 41.0871 61.9167C41.1341 62.5716 41.2548 63.3866 41.3594 63.7558C41.4628 64.1205 41.6924 64.7108 41.8698 65.0676C42.0472 65.4243 42.4048 65.9948 42.6643 66.3352C42.924 66.6756 43.3723 67.1308 43.6606 67.3466C43.9489 67.5626 44.4005 67.8193 44.664 67.9173C44.9275 68.0152 45.3718 68.1238 45.6514 68.1584C46.0046 68.2023 46.3335 68.1773 46.7294 68.0765C47.0428 67.9967 47.4519 67.8402 47.6385 67.7286C47.8252 67.617 48.0975 67.4238 48.2436 67.2994C48.3898 67.175 48.6615 66.8877 48.8474 66.661C49.0334 66.4343 49.3135 65.9771 49.47 65.645C49.6264 65.3128 49.8138 64.8266 49.8864 64.5645C49.9591 64.3024 50.0563 63.3755 50.1025 62.5047C50.1487 61.634 50.2314 60.7588 50.2862 60.5597C50.3411 60.3607 50.4745 59.974 50.5827 59.7003C50.691 59.4266 50.8809 59.0196 51.0047 58.7956C51.1286 58.5717 51.5399 58.08 51.9187 57.7028C52.3449 57.2785 52.7983 56.9261 53.1083 56.7784C53.3838 56.647 53.8535 56.4772 54.152 56.401C54.4505 56.3249 54.9301 56.2626 55.2176 56.2626C55.5051 56.2626 55.9575 56.307 56.223 56.3612C56.4883 56.4155 57.0334 56.6156 57.4341 56.8059C57.8712 57.0136 58.3936 57.36 58.74 57.6722C59.0576 57.9583 59.5158 58.473 59.7583 58.8159C60.0008 59.159 60.3249 59.7395 60.4784 60.106C60.632 60.4726 60.8155 61.0503 60.886 61.3898C60.9624 61.7572 61.056 63.1794 61.1173 64.9021C61.1739 66.4943 61.2597 68.5508 61.3079 69.4721C61.3694 70.6502 61.4501 71.3436 61.5799 71.8088C61.6814 72.1725 61.8918 72.7214 62.0474 73.0285C62.2031 73.3356 62.4562 73.77 62.61 73.9939C62.7638 74.2178 63.0964 74.6202 63.3492 74.8882C63.6021 75.1561 64.016 75.5281 64.2691 75.7147C64.5222 75.9014 64.973 76.1751 65.2709 76.3231C65.5687 76.4711 66.0195 76.6596 66.2726 76.7419C66.5257 76.8242 67.0175 76.9258 67.3654 76.9677C67.7134 77.0095 68.3013 77.0102 68.6719 76.9691C69.0425 76.9282 69.6057 76.8087 69.9234 76.7036C70.2411 76.5986 70.7991 76.3193 71.1634 76.0832C71.5276 75.847 72.0399 75.4126 72.3018 75.1178C72.5639 74.8231 72.9413 74.2562 73.1408 73.8582C73.3401 73.4602 73.5721 72.8312 73.656 72.4606C73.797 71.8387 73.8007 71.2411 73.7023 64.7258C73.6437 60.8423 73.5972 55.3037 73.5988 52.4178C73.6006 49.5319 73.6422 46.7913 73.6914 46.3276C73.7405 45.8637 73.8856 45.1717 74.0138 44.7896C74.1419 44.4075 74.4146 43.81 74.6195 43.4617C74.8393 43.0883 75.3138 42.5119 75.7754 42.0571C76.4134 41.4287 76.7188 41.2066 77.4236 40.8578C77.8995 40.6223 78.5552 40.3609 78.8807 40.2768C79.2627 40.1782 79.828 40.1239 80.4744 40.1239C81.1359 40.1239 81.6773 40.1772 82.0681 40.2806C82.3937 40.3667 82.9265 40.5605 83.252 40.7114C83.5776 40.8622 84.122 41.1955 84.462 41.4522C84.8018 41.7089 85.304 42.1983 85.5779 42.5399C85.8518 42.8815 86.2161 43.4525 86.3874 43.8088C86.5588 44.1652 86.7697 44.7011 86.8563 44.9996C87.0009 45.4983 87.0197 46.6853 87.0882 59.6098C87.1292 67.3469 87.2007 75.9774 87.2471 78.7886C87.3187 83.1263 87.3547 83.9812 87.4845 84.4364C87.5687 84.7315 87.7752 85.2403 87.9434 85.5672C88.1116 85.8941 88.4366 86.3953 88.6656 86.681C88.8945 86.9667 89.3172 87.3857 89.6048 87.6121C89.8924 87.8384 90.4555 88.1851 90.8562 88.3823C91.257 88.5795 91.9126 88.8246 92.3133 88.927C92.8224 89.057 93.3299 89.113 93.9981 89.113C94.672 89.113 95.1694 89.0575 95.6829 88.925C96.0836 88.8216 96.6983 88.601 97.0489 88.4348C97.3995 88.2686 97.9449 87.9383 98.2609 87.7008C98.577 87.4633 99.038 87.0204 99.2855 86.7167C99.5329 86.4128 99.8753 85.899 100.046 85.5749C100.217 85.2507 100.422 84.7386 100.5 84.4368C100.578 84.1351 100.682 83.4375 100.731 82.8867C100.78 82.3358 100.906 81.6261 101.013 81.3093C101.119 80.9927 101.344 80.4893 101.513 80.1908C101.682 79.8923 101.99 79.4445 102.199 79.1957C102.407 78.9469 102.825 78.5354 103.126 78.2813C103.428 78.0271 103.946 77.6736 104.278 77.4957C104.609 77.3178 105.229 77.0725 105.655 76.9505C106.081 76.8287 106.759 76.7003 107.163 76.6653C107.675 76.6208 108.142 76.6439 108.713 76.7417C109.162 76.8187 109.754 76.9717 110.028 77.0816C110.303 77.1916 110.801 77.4588 111.135 77.6756C111.469 77.8923 111.953 78.2987 112.211 78.5789C112.469 78.859 112.799 79.2956 112.946 79.549C113.092 79.8025 113.304 80.2745 113.418 80.5979C113.605 81.1327 113.622 81.3376 113.611 82.8596C113.605 83.78 113.531 85.4898 113.448 86.6591C113.365 87.8284 113.273 89.3779 113.242 90.1025C113.204 91.0242 113.222 91.5677 113.303 91.9118C113.366 92.1823 113.546 92.6468 113.703 92.944C113.859 93.2411 114.194 93.6889 114.446 93.9391C114.697 94.1892 115.148 94.5229 115.447 94.6804C115.746 94.8379 116.243 95.0313 116.551 95.1101C116.87 95.1918 117.476 95.2528 117.962 95.252C118.431 95.2513 119.071 95.1907 119.384 95.1172C119.697 95.0439 120.21 94.8769 120.522 94.7462C120.835 94.6156 121.376 94.3257 121.724 94.1021C122.072 93.8786 122.62 93.4456 122.941 93.1401C123.263 92.8346 123.688 92.3476 123.887 92.0579C124.086 91.7682 124.367 91.2797 124.511 90.9723C124.655 90.6649 124.834 90.1692 124.909 89.8707C124.983 89.5721 125.087 88.9411 125.138 88.4684C125.19 87.9957 125.292 87.1001 125.364 86.4782C125.437 85.8562 125.579 84.5128 125.681 83.4928C125.782 82.4728 125.908 81.1193 125.96 80.4848C126.012 79.8504 126.094 78.8326 126.143 78.2232C126.192 77.6137 126.275 76.4433 126.329 75.6223C126.382 74.8013 126.468 73.5649 126.519 72.8747C126.592 71.9089 126.676 71.4296 126.885 70.7946C127.034 70.3407 127.295 69.7248 127.464 69.426C127.634 69.1271 127.971 68.6393 128.213 68.342C128.456 68.0447 128.899 67.6048 129.198 67.3644C129.498 67.124 130.029 66.7876 130.38 66.6168C130.731 66.4459 131.284 66.2396 131.609 66.1584C132.029 66.0536 132.427 66.0241 132.975 66.0569C133.447 66.0851 133.954 66.1802 134.273 66.3005C134.56 66.409 135.032 66.6743 135.321 66.8902C135.61 67.1059 136.023 67.5193 136.239 67.8089C136.455 68.0984 136.728 68.5457 136.847 68.8028C136.965 69.0599 137.126 69.5783 137.204 69.9547C137.295 70.3925 137.347 71.1213 137.348 71.9772C137.349 72.8425 137.397 73.5176 137.485 73.8876C137.56 74.2023 137.734 74.6883 137.871 74.9677C138.008 75.2469 138.312 75.6833 138.545 75.9372C138.779 76.1911 139.188 76.5193 139.456 76.6664C139.908 76.9152 140.009 76.934 140.898 76.934C141.799 76.934 141.891 76.9163 142.481 76.6298C142.891 76.4309 143.353 76.0927 143.817 75.6524C144.207 75.2821 144.693 74.7245 144.897 74.4131C145.102 74.1018 145.411 73.5209 145.585 73.1223C145.759 72.7236 145.966 72.1561 146.045 71.8613C146.123 71.5664 146.245 70.6127 146.315 69.742C146.385 68.8713 146.484 67.5482 146.537 66.8019C146.589 66.0555 146.674 64.7732 146.726 63.9522C146.777 63.1312 146.86 61.404 146.91 60.114C146.959 58.824 147 56.1295 147 54.1265C147 51.2985 146.971 50.3458 146.868 49.8634C146.796 49.5217 146.637 48.9698 146.516 48.637C146.394 48.3041 146.156 47.7974 145.987 47.5108C145.818 47.2243 145.387 46.6948 145.03 46.3341C144.562 45.8623 144.204 45.5958 143.755 45.3846C143.194 45.1212 143.045 45.091 142.31 45.091C141.576 45.091 141.426 45.1213 140.869 45.383C140.454 45.5776 140.057 45.864 139.677 46.242C139.27 46.6473 138.999 47.0282 138.729 47.5779C138.521 48.0008 138.285 48.5911 138.205 48.8896C138.126 49.1882 138.027 50.0431 137.987 50.7894C137.947 51.5358 137.844 52.4314 137.758 52.7797C137.673 53.128 137.437 53.759 137.234 54.1819C136.938 54.8005 136.722 55.094 136.127 55.6826C135.617 56.1888 135.206 56.5028 134.797 56.701C134.471 56.8587 133.898 57.0515 133.522 57.1294C133.087 57.2197 132.657 57.2506 132.338 57.2144C132.062 57.1831 131.614 57.0952 131.341 57.0189C131.068 56.9427 130.617 56.766 130.339 56.6262C130.061 56.4863 129.614 56.1947 129.347 55.978C129.079 55.7613 128.673 55.3399 128.446 55.0413C128.218 54.7428 127.872 54.1696 127.677 53.7676C127.466 53.3337 127.249 52.6901 127.144 52.1844C127.005 51.5127 126.967 50.9586 126.966 49.5681C126.965 48.4321 126.917 47.5374 126.832 47.0553C126.759 46.6434 126.558 45.9614 126.385 45.5399C126.212 45.1183 125.887 44.518 125.662 44.2057C125.438 43.8935 124.966 43.3672 124.612 43.0362C124.157 42.6091 123.724 42.3138 123.123 42.0187C122.648 41.7862 121.974 41.5401 121.592 41.4604C121.129 41.3637 120.66 41.3331 120.135 41.3654C119.682 41.3934 119.055 41.5093 118.625 41.6449C118.22 41.7723 117.64 42.0365 117.336 42.2319C117.032 42.4273 116.611 42.7412 116.401 42.9294C116.192 43.1176 115.839 43.5241 115.617 43.8329C115.395 44.1415 115.088 44.67 114.934 45.0071C114.78 45.3442 114.591 45.9079 114.514 46.2597C114.394 46.8077 114.376 47.8775 114.391 53.7296C114.402 57.9978 114.372 60.8661 114.313 61.3766C114.261 61.826 114.115 62.4941 113.989 62.8612C113.864 63.2284 113.633 63.7564 113.477 64.0345C113.321 64.3127 113.027 64.7399 112.822 64.9839C112.618 65.2279 112.269 65.5942 112.047 65.7981C111.824 66.0019 111.412 66.321 111.13 66.5072C110.849 66.6935 110.367 66.9455 110.061 67.0675C109.755 67.1893 109.162 67.358 108.744 67.4421C108.202 67.5512 107.761 67.5799 107.206 67.542C106.779 67.5128 106.183 67.4245 105.883 67.346C105.582 67.2675 105.049 67.0686 104.699 66.9038C104.348 66.7392 103.787 66.3843 103.451 66.1152C103.115 65.846 102.634 65.3694 102.382 65.0561C102.13 64.7426 101.782 64.193 101.608 63.8348C101.435 63.4764 101.221 62.939 101.133 62.6404C100.991 62.1599 100.97 61.5791 100.948 57.5744C100.935 55.0865 100.881 47.9013 100.827 41.6071C100.774 35.313 100.672 26.9879 100.6 23.1069C100.5 17.7054 100.44 15.9444 100.344 15.5982C100.275 15.3494 100.093 14.9016 99.9406 14.6031C99.7881 14.3046 99.4849 13.8425 99.2668 13.5765C99.0487 13.3103 98.6247 12.909 98.3245 12.6846C98.0243 12.4602 97.5447 12.1593 97.2586 12.0159C96.9727 11.8724 96.3891 11.6545 95.9618 11.5314C95.519 11.404 94.8418 11.2896 94.3866 11.2655C93.9476 11.2422 93.3598 11.2549 93.0806 11.2938ZM117.813 14.7402C117.612 14.781 117.34 14.8556 117.208 14.9062C117.076 14.9567 116.813 15.1328 116.624 15.2973C116.436 15.462 116.207 15.7599 116.115 15.9593C116.013 16.1832 115.949 16.5373 115.948 16.8847C115.946 17.2864 116.009 17.589 116.165 17.9413C116.286 18.2128 116.562 18.6254 116.778 18.8582C116.994 19.0911 117.347 19.4019 117.562 19.5487C117.776 19.6955 118.183 19.8947 118.466 19.9912C118.787 20.1011 119.221 20.1664 119.625 20.1658C120.111 20.1652 120.385 20.1122 120.73 19.9526C120.983 19.8358 121.307 19.6021 121.45 19.4333C121.593 19.2645 121.771 18.9841 121.844 18.8102C121.935 18.5932 121.964 18.2953 121.936 17.8603C121.908 17.4458 121.822 17.0858 121.685 16.8195C121.57 16.5956 121.357 16.2621 121.212 16.0783C121.066 15.8945 120.703 15.5825 120.406 15.3848C120.108 15.1872 119.669 14.9642 119.43 14.8894C119.192 14.8145 118.812 14.7336 118.587 14.7098C118.361 14.6858 118.013 14.6995 117.813 14.7402ZM118.539 25.1373C118.287 25.1762 117.857 25.2734 117.583 25.3533C117.308 25.4333 116.824 25.652 116.506 25.8396C116.189 26.0271 115.693 26.4125 115.405 26.6959C115.111 26.9854 114.739 27.4816 114.557 27.8278C114.378 28.1669 114.158 28.6886 114.068 28.9872C113.954 29.3662 113.904 29.8301 113.903 30.5251C113.903 31.0724 113.959 31.7441 114.028 32.0177C114.097 32.2913 114.267 32.7895 114.406 33.1247C114.546 33.46 114.812 33.9625 114.998 34.2415C115.185 34.5205 115.542 34.9713 115.792 35.2433C116.042 35.5153 116.504 35.9195 116.817 36.1416C117.13 36.3636 117.687 36.6825 118.055 36.8502C118.422 37.0179 119.047 37.2261 119.443 37.3127C119.981 37.4303 120.397 37.4579 121.083 37.4217C121.732 37.3874 122.178 37.3088 122.605 37.1535C122.936 37.0327 123.407 36.8184 123.652 36.6771C123.896 36.5359 124.348 36.1664 124.656 35.856C125.02 35.4892 125.331 35.0592 125.543 34.6273C125.723 34.2618 125.937 33.6982 126.019 33.3748C126.132 32.9273 126.156 32.5379 126.12 31.7464C126.086 31.0186 126.011 30.53 125.872 30.12C125.762 29.7976 125.569 29.3294 125.442 29.0796C125.316 28.8298 125.038 28.381 124.825 28.0825C124.612 27.784 124.212 27.3284 123.936 27.0701C123.661 26.8117 123.154 26.4207 122.81 26.201C122.465 25.9813 121.916 25.696 121.588 25.567C121.26 25.4379 120.809 25.2928 120.586 25.2446C120.363 25.1963 119.914 25.1365 119.588 25.1116C119.263 25.0868 118.791 25.0983 118.539 25.1373ZM46.2299 31.0468C45.9767 31.2983 45.8025 31.5742 45.7301 31.8384C45.64 32.1673 45.6425 32.312 45.7437 32.6049C45.8249 32.8396 45.9564 33.0076 46.1203 33.0854C46.2588 33.1512 46.4562 33.1786 46.5589 33.1462C46.6615 33.1138 46.8882 32.963 47.0626 32.8109C47.237 32.6588 47.4391 32.3927 47.5119 32.2198C47.5847 32.0467 47.6442 31.7251 47.6442 31.505C47.6442 31.2008 47.5907 31.0517 47.4207 30.8829C47.2772 30.7403 47.0936 30.6608 46.9078 30.6608C46.6887 30.6608 46.5243 30.7544 46.2299 31.0468ZM140.261 30.8528C140.136 30.9025 139.937 31.0322 139.82 31.1412C139.702 31.2502 139.528 31.4889 139.434 31.6718C139.34 31.8547 139.237 32.2211 139.206 32.486C139.175 32.7509 139.195 33.2104 139.25 33.5071C139.306 33.8038 139.471 34.3014 139.618 34.6129C139.765 34.9244 140.076 35.3823 140.31 35.6304C140.543 35.8785 140.943 36.1849 141.199 36.3113C141.504 36.4624 141.814 36.5411 142.105 36.5411C142.348 36.5411 142.657 36.4839 142.793 36.414C142.928 36.344 143.129 36.1909 143.239 36.0734C143.349 35.9561 143.507 35.7009 143.588 35.5063C143.686 35.2755 143.737 34.8972 143.735 34.4181C143.734 33.8865 143.677 33.5349 143.531 33.1448C143.421 32.8483 143.176 32.3794 142.987 32.1025C142.799 31.8258 142.498 31.4881 142.319 31.352C142.139 31.2161 141.818 31.0262 141.605 30.93C141.392 30.8338 141.053 30.7569 140.853 30.7589C140.653 30.761 140.386 30.8033 140.261 30.8528ZM46.0505 78.4885C45.9503 78.5159 45.7509 78.6211 45.6073 78.7224C45.4638 78.8236 45.27 79.0733 45.1767 79.2772C45.0673 79.5165 45.0065 79.8596 45.0052 80.2446C45.0041 80.5874 45.075 81.0572 45.1718 81.3488C45.2645 81.628 45.4797 82.0867 45.6499 82.3681C45.8201 82.6496 46.1439 83.0423 46.3693 83.2409C46.5947 83.4393 46.943 83.6867 47.1433 83.7905C47.3769 83.9114 47.6874 83.9811 48.0085 83.9848C48.3935 83.9891 48.5783 83.9415 48.8074 83.7792C48.9714 83.6631 49.1865 83.4102 49.2855 83.2174C49.4166 82.9622 49.4653 82.6872 49.4646 82.2073C49.464 81.8445 49.4034 81.3506 49.3298 81.1096C49.2561 80.8685 49.0726 80.4572 48.9219 80.1955C48.7712 79.9339 48.4484 79.5344 48.2046 79.3078C47.9607 79.0813 47.5916 78.8099 47.3842 78.7048C47.177 78.5998 46.833 78.4969 46.62 78.4762C46.407 78.4556 46.1507 78.4611 46.0505 78.4885ZM140.624 80.5849C140.449 80.6772 140.186 80.944 140.04 81.1779C139.841 81.4941 139.771 81.7197 139.767 82.0582C139.761 82.432 139.798 82.5445 139.975 82.6865C140.093 82.7817 140.278 82.8594 140.385 82.8592C140.492 82.859 140.711 82.7792 140.872 82.6818C141.033 82.5844 141.275 82.3393 141.409 82.1371C141.56 81.9107 141.671 81.5992 141.697 81.3262C141.734 80.9398 141.71 80.8529 141.505 80.6499C141.376 80.5218 141.197 80.417 141.106 80.417C141.015 80.417 140.798 80.4925 140.624 80.5849ZM66.7852 85.7652C66.5188 85.8092 66.0885 85.934 65.829 86.0426C65.5694 86.1512 65.1882 86.3529 64.9818 86.491C64.7755 86.6292 64.4187 86.9497 64.1891 87.2034C63.9595 87.4571 63.6658 87.8869 63.5364 88.1585C63.4071 88.4301 63.2573 88.8857 63.2035 89.171C63.1496 89.4563 63.1263 89.995 63.1518 90.3682C63.1772 90.7414 63.2871 91.3113 63.3958 91.6347C63.5045 91.9582 63.7584 92.5007 63.9599 92.8404C64.1614 93.1801 64.5981 93.7443 64.9304 94.0942C65.2627 94.4442 65.7815 94.9044 66.0833 95.1169C66.3851 95.3295 66.8863 95.63 67.1969 95.7847C67.5076 95.9394 68.1167 96.1681 68.5504 96.2929C69.1276 96.459 69.5547 96.5199 70.1439 96.5199C70.5866 96.5199 71.166 96.4752 71.4314 96.4206C71.6968 96.3661 72.202 96.1857 72.5541 96.0198C72.9675 95.825 73.3789 95.5347 73.7154 95.2004C74.002 94.9157 74.3392 94.4743 74.4646 94.2195C74.5901 93.9649 74.7561 93.4545 74.8335 93.0855C74.9454 92.553 74.9559 92.2637 74.8843 91.6827C74.8347 91.2801 74.6943 90.6775 74.5723 90.3436C74.4503 90.0097 74.2121 89.5033 74.0429 89.2182C73.8738 88.9332 73.387 88.3481 72.9613 87.9181C72.4506 87.4024 71.9393 86.9929 71.4586 86.7146C71.0579 86.4825 70.4077 86.1911 70.0137 86.0669C69.6196 85.9428 69.0254 85.8021 68.6932 85.7544C68.361 85.7066 67.9047 85.6715 67.6793 85.6764C67.4539 85.6812 67.0516 85.7212 66.7852 85.7652ZM93.4441 94.622C93.1645 94.6558 92.7118 94.7853 92.4382 94.9098C92.1646 95.0342 91.797 95.2613 91.6213 95.4146C91.4455 95.5678 91.1833 95.9096 91.0384 96.1741C90.8254 96.5628 90.7745 96.7679 90.773 97.2433C90.7716 97.6713 90.8236 97.9303 90.9641 98.1935C91.0703 98.3925 91.3149 98.7136 91.5076 98.907C91.7003 99.1004 92.1236 99.3835 92.4484 99.536C92.9266 99.7607 93.1861 99.8203 93.8144 99.8496C94.439 99.8787 94.7043 99.8474 95.1766 99.6887C95.4992 99.5803 95.9343 99.3697 96.1434 99.2205C96.3526 99.0712 96.6048 98.8402 96.7038 98.7071C96.803 98.5738 96.9479 98.3422 97.026 98.1923C97.104 98.0424 97.1964 97.7309 97.2312 97.4999C97.2739 97.2174 97.2482 96.9213 97.1524 96.5941C97.0719 96.3189 96.867 95.9419 96.6803 95.7252C96.4989 95.5147 96.1786 95.2424 95.9682 95.1199C95.7579 94.9975 95.4232 94.8411 95.2245 94.7724C95.0258 94.7038 94.6583 94.628 94.4079 94.604C94.1575 94.58 93.7237 94.5882 93.4441 94.622ZM118.123 99.8686C117.792 99.9078 117.268 100.005 116.957 100.084C116.646 100.163 116.093 100.351 115.729 100.502C115.364 100.653 114.762 100.975 114.39 101.218C114.018 101.461 113.473 101.894 113.179 102.181C112.884 102.468 112.484 102.947 112.289 103.246C112.095 103.545 111.855 104.051 111.755 104.371C111.656 104.691 111.574 105.145 111.574 105.382C111.574 105.618 111.622 105.949 111.68 106.118C111.737 106.287 111.891 106.576 112.021 106.76C112.151 106.943 112.475 107.236 112.74 107.41C113.054 107.617 113.465 107.781 113.915 107.88C114.432 107.995 114.852 108.021 115.573 107.985C116.266 107.95 116.755 107.867 117.312 107.691C117.737 107.555 118.373 107.302 118.723 107.127C119.074 106.952 119.607 106.644 119.907 106.444C120.208 106.243 120.745 105.787 121.101 105.43C121.457 105.073 121.894 104.521 122.072 104.202C122.249 103.882 122.442 103.387 122.501 103.101C122.58 102.714 122.581 102.457 122.505 102.095C122.449 101.827 122.286 101.425 122.143 101.2C121.999 100.976 121.701 100.668 121.479 100.517C121.257 100.365 120.833 100.162 120.537 100.065C120.241 99.9675 119.711 99.8677 119.361 99.8427C119.01 99.8177 118.453 99.8294 118.123 99.8686ZM68.865 102.332C68.6445 102.444 68.3797 102.651 68.2766 102.792C68.1408 102.977 68.0904 103.18 68.0938 103.53C68.0974 103.902 68.1604 104.112 68.3699 104.449C68.5191 104.688 68.8811 105.077 69.1744 105.311C69.4676 105.546 69.9786 105.846 70.3099 105.978C70.6666 106.119 71.1722 106.236 71.5497 106.264C71.9138 106.291 72.3563 106.266 72.5815 106.205C72.7984 106.146 73.1263 105.961 73.3101 105.794C73.6291 105.504 73.6443 105.463 73.6443 104.903C73.6443 104.367 73.6133 104.272 73.28 103.793C73.0519 103.465 72.7026 103.125 72.3456 102.884C72.0321 102.671 71.5053 102.414 71.175 102.313C70.8069 102.2 70.321 102.129 69.9202 102.129C69.4214 102.129 69.1708 102.177 68.865 102.332ZM93.3634 103.991C93.1895 104.066 92.9767 104.19 92.8904 104.268C92.8041 104.346 92.7077 104.526 92.6761 104.669C92.6385 104.839 92.6725 105.019 92.7755 105.192C92.8617 105.337 93.0709 105.521 93.2406 105.601C93.4102 105.682 93.7565 105.747 94.0102 105.747C94.2639 105.747 94.6126 105.681 94.7852 105.599C94.9578 105.518 95.1612 105.332 95.2373 105.186C95.3208 105.026 95.3535 104.819 95.3197 104.667C95.2888 104.527 95.1735 104.329 95.0634 104.227C94.9533 104.124 94.7479 103.997 94.6069 103.944C94.4659 103.891 94.1996 103.849 94.015 103.851C93.8304 103.853 93.5371 103.916 93.3634 103.991Z" fill="url(#paint9_linear_1387_14891)"/>
</g>
<defs>
<linearGradient id="paint0_linear_1387_14891" x1="94" y1="2.86747e-06" x2="60.5" y2="74" gradientUnits="userSpaceOnUse">
<stop stop-color="#9730FF"/>
<stop offset="1" stop-color="#4030FF"/>
</linearGradient>
<linearGradient id="paint1_linear_1387_14891" x1="94" y1="2.86747e-06" x2="60.5" y2="74" gradientUnits="userSpaceOnUse">
<stop stop-color="#9730FF"/>
<stop offset="1" stop-color="#4030FF"/>
</linearGradient>
<linearGradient id="paint2_linear_1387_14891" x1="94" y1="2.86747e-06" x2="60.5" y2="74" gradientUnits="userSpaceOnUse">
<stop stop-color="#9730FF"/>
<stop offset="1" stop-color="#4030FF"/>
</linearGradient>
<linearGradient id="paint3_linear_1387_14891" x1="94" y1="2.86747e-06" x2="60.5" y2="74" gradientUnits="userSpaceOnUse">
<stop stop-color="#9730FF"/>
<stop offset="1" stop-color="#4030FF"/>
</linearGradient>
<linearGradient id="paint4_linear_1387_14891" x1="94" y1="2.86747e-06" x2="60.5" y2="74" gradientUnits="userSpaceOnUse">
<stop stop-color="#9730FF"/>
<stop offset="1" stop-color="#4030FF"/>
</linearGradient>
<linearGradient id="paint5_linear_1387_14891" x1="94" y1="2.86747e-06" x2="60.5" y2="74" gradientUnits="userSpaceOnUse">
<stop stop-color="#9730FF"/>
<stop offset="1" stop-color="#4030FF"/>
</linearGradient>
<linearGradient id="paint6_linear_1387_14891" x1="94" y1="2.86747e-06" x2="60.5" y2="74" gradientUnits="userSpaceOnUse">
<stop stop-color="#9730FF"/>
<stop offset="1" stop-color="#4030FF"/>
</linearGradient>
<linearGradient id="paint7_linear_1387_14891" x1="94" y1="2.86747e-06" x2="60.5" y2="74" gradientUnits="userSpaceOnUse">
<stop stop-color="#9730FF"/>
<stop offset="1" stop-color="#4030FF"/>
</linearGradient>
<linearGradient id="paint8_linear_1387_14891" x1="94" y1="2.86747e-06" x2="60.5" y2="74" gradientUnits="userSpaceOnUse">
<stop stop-color="#9730FF"/>
<stop offset="1" stop-color="#4030FF"/>
</linearGradient>
<linearGradient id="paint9_linear_1387_14891" x1="94" y1="2.86747e-06" x2="60.5" y2="74" gradientUnits="userSpaceOnUse">
<stop stop-color="#9730FF"/>
<stop offset="1" stop-color="#4030FF"/>
</linearGradient>
</defs>
</svg>
