<svg width="18" height="18" viewBox="0 0 18 18" fill="none" xmlns="http://www.w3.org/2000/svg">
<g id="icon/24x24/moveforward">
<path id="Vector" d="M17.2143 8.79589L17.2148 8.79616C17.2679 8.82679 17.3002 8.88348 17.3 8.94353V8.94597C17.3 9.00846 17.2667 9.06549 17.2137 9.09605L17.2132 9.09631L9.72568 13.4191L9.72509 13.4195C9.69842 13.4349 9.66838 13.4426 9.63943 13.4426C9.6107 13.4426 9.58017 13.435 9.55217 13.4188C9.4993 13.3884 9.46613 13.3314 9.46613 13.2693V9.72073V9.38418L9.46667 9.38449V8.17202V4.62344C9.46667 4.56124 9.50018 4.50379 9.55298 4.47336C9.60712 4.44216 9.67341 4.44233 9.72692 4.47318C9.72694 4.47319 9.72696 4.4732 9.72697 4.47321L17.2143 8.79589ZM8.41666 8.77823L8.70762 8.94622L8.41614 9.1145L0.960563 13.4188C0.932468 13.435 0.902194 13.4426 0.873301 13.4426C0.844632 13.4426 0.814598 13.4351 0.786311 13.4188C0.733082 13.3882 0.7 13.331 0.7 13.2693V4.62344C0.7 4.56124 0.733502 4.50379 0.786311 4.47336C0.840169 4.44232 0.906364 4.4421 0.960875 4.47338C0.960949 4.47342 0.961024 4.47347 0.961098 4.47351L8.41666 8.77823Z" stroke="#4030FF" stroke-width="1.4"/>
</g>
</svg>
